<svg width="20" height="20" viewBox="0 0 20 20" fill="none" xmlns="http://www.w3.org/2000/svg">
<g id="Icon">
<path id="Vector" d="M1 1H4.38321L5.58853 12.9769C5.63862 13.3071 5.80643 13.608 6.06102 13.8243C6.31561 14.0406 6.63984 14.1576 6.97395 14.1538H15.7021C16.0042 14.1696 16.3032 14.0861 16.5534 13.9161C16.8035 13.7461 16.9912 13.4989 17.0875 13.2123L18.9302 7.67385C18.999 7.46564 19.0173 7.24406 18.9836 7.02739C18.9498 6.81072 18.865 6.60517 18.7362 6.42769C18.6021 6.23894 18.4227 6.08681 18.2146 5.98522C18.0065 5.88362 17.7761 5.83581 17.5447 5.84615H4.8681" stroke="white" stroke-width="1.42857" stroke-linecap="round" stroke-linejoin="round"/>
<path id="Vector_2" d="M15.4661 19C15.2824 19 15.1062 18.9271 14.9763 18.7972C14.8464 18.6674 14.7734 18.4913 14.7734 18.3077C14.7734 18.1241 14.8464 17.948 14.9763 17.8182C15.1062 17.6883 15.2824 17.6154 15.4661 17.6154C15.6499 17.6154 15.8261 17.6883 15.956 17.8182C16.0859 17.948 16.1589 18.1241 16.1589 18.3077C16.1589 18.4913 16.0859 18.6674 15.956 18.7972C15.8261 18.9271 15.6499 19 15.4661 19Z" fill="white" stroke="white" stroke-width="1.42857" stroke-linecap="round" stroke-linejoin="round"/>
<path id="Vector_3" d="M6.46127 19C6.27755 19 6.10135 18.9271 5.97145 18.7972C5.84154 18.6674 5.76855 18.4913 5.76855 18.3077C5.76855 18.1241 5.84154 17.948 5.97145 17.8182C6.10135 17.6883 6.27755 17.6154 6.46127 17.6154C6.64499 17.6154 6.82118 17.6883 6.95109 17.8182C7.081 17.948 7.15398 18.1241 7.15398 18.3077C7.15398 18.4913 7.081 18.6674 6.95109 18.7972C6.82118 18.9271 6.64499 19 6.46127 19Z" fill="white" stroke="white" stroke-width="1.42857" stroke-linecap="round" stroke-linejoin="round"/>
<path id="Vector_4" d="M9.56152 8.61539V11.3846" stroke="white" stroke-width="1.42857" stroke-linecap="round" stroke-linejoin="round"/>
<path id="Vector_5" d="M13.7178 8.61539V11.3846" stroke="white" stroke-width="1.42857" stroke-linecap="round" stroke-linejoin="round"/>
</g>
</svg>
