<svg width="46" height="46" viewBox="0 0 46 46" fill="none" xmlns="http://www.w3.org/2000/svg">
<g id="Group">
<path id="Vector" fill-rule="evenodd" clip-rule="evenodd" d="M23.0001 3L28.8689 8.83103L37.142 8.85802L37.1689 17.1312L43 23L37.1689 28.8688L37.142 37.142L28.8689 37.169L23.0001 43L17.1311 37.169L8.85804 37.142L8.83105 28.8688L3 23L8.83105 17.1312L8.85804 8.85802L17.1311 8.83103L23.0001 3Z" stroke="#AF955C" stroke-width="3.99988" stroke-miterlimit="22.9256"/>
<path id="Vector_2" fill-rule="evenodd" clip-rule="evenodd" d="M18.2444 11.5198L22.9996 13.4716L27.7548 11.52L29.7373 16.2624L34.4797 18.2448L32.5281 22.9998L34.4796 27.7551L29.7372 29.7377L27.7548 34.4801L22.9997 32.5285L18.2444 34.4798L16.2619 29.7375L11.5195 27.7552L13.4712 23L11.5197 18.2448L16.2621 16.2624L18.2444 11.5198Z" stroke="#AF955C" stroke-width="3.99988" stroke-miterlimit="22.9256"/>
</g>
</svg>
