<svg width="186" height="46" viewBox="0 0 186 46" fill="none" xmlns="http://www.w3.org/2000/svg">
<path fill-rule="evenodd" clip-rule="evenodd" d="M24.0001 3L29.8689 8.83103L38.142 8.85802L38.1689 17.1312L44 23L38.1689 28.8688L38.142 37.142L29.8689 37.169L24.0001 43L18.1311 37.169L9.85804 37.142L9.83105 28.8688L4 23L9.83105 17.1312L9.85804 8.85802L18.1311 8.83103L24.0001 3Z" stroke="#AF955C" stroke-width="3.99988" stroke-miterlimit="22.9256"/>
<path fill-rule="evenodd" clip-rule="evenodd" d="M19.2444 11.52L23.9996 13.4718L28.7548 11.5202L30.7373 16.2626L35.4797 18.245L33.5281 23L35.4796 27.7553L30.7372 29.7379L28.7548 34.4803L23.9997 32.5286L19.2444 34.48L17.2619 29.7377L12.5195 27.7554L14.4712 23.0001L12.5197 18.245L17.2621 16.2626L19.2444 11.52Z" stroke="#AF955C" stroke-width="3.99988" stroke-miterlimit="22.9256"/>
<path d="M60.3906 19.6763V23.8013C60.3906 24.7075 60.4896 25.2648 60.6875 25.4731C60.9583 25.7752 61.3594 25.9263 61.8906 25.9263H62.4375V26.3169H56.3594V25.9263H56.8906C57.4844 25.9263 57.9115 25.7336 58.1719 25.3481C58.3177 25.119 58.3906 24.6034 58.3906 23.8013V14.6294C58.3906 13.744 58.2969 13.1919 58.1094 12.9731C57.8281 12.6606 57.4219 12.5044 56.8906 12.5044H56.3594V12.1138H61.5625C62.8125 12.1138 63.8125 12.2492 64.5625 12.52C64.9271 12.645 65.2656 12.8221 65.5781 13.0513C65.901 13.27 66.1771 13.5356 66.4062 13.8481C66.6458 14.1502 66.8333 14.4888 66.9688 14.8638C67.1042 15.2284 67.1719 15.6242 67.1719 16.0513C67.1719 16.6242 67.0729 17.1502 66.875 17.6294C66.6771 18.1086 66.3906 18.52 66.0156 18.8638C65.6406 19.2075 65.1823 19.4784 64.6406 19.6763C64.099 19.8638 63.4792 19.9575 62.7812 19.9575C62.1042 19.9575 61.3073 19.8638 60.3906 19.6763ZM60.3906 19.0669C60.7656 19.1398 61.0938 19.1971 61.375 19.2388C61.6562 19.27 61.901 19.2856 62.1094 19.2856C62.474 19.2856 62.8177 19.2127 63.1406 19.0669C63.4635 18.9106 63.7448 18.7023 63.9844 18.4419C64.2344 18.1711 64.4271 17.8481 64.5625 17.4731C64.7083 17.0981 64.7812 16.6919 64.7812 16.2544C64.7812 15.7336 64.7031 15.27 64.5469 14.8638C64.3906 14.4575 64.1771 14.1138 63.9062 13.8325C63.6354 13.5513 63.3177 13.3377 62.9531 13.1919C62.5885 13.0461 62.1927 12.9731 61.7656 12.9731C61.4115 12.9731 60.9531 13.0356 60.3906 13.1606V19.0669ZM83.7019 26.3169H79.9206L75.1081 19.6763C74.931 19.6867 74.7696 19.6971 74.6237 19.7075C74.4883 19.7075 74.3633 19.7075 74.2487 19.7075C74.155 19.7075 74.056 19.7075 73.9519 19.7075C73.8477 19.6971 73.7383 19.6867 73.6237 19.6763V23.8013C73.6237 24.3013 73.655 24.6971 73.7175 24.9888C73.7904 25.27 73.8894 25.4836 74.0144 25.6294C74.1498 25.7648 74.306 25.8481 74.4831 25.8794C74.6706 25.9106 74.879 25.9263 75.1081 25.9263H75.6706V26.3169H69.5769V25.9263H70.1237C70.7071 25.9263 71.1342 25.7336 71.405 25.3481C71.5508 25.119 71.6237 24.6034 71.6237 23.8013V14.6294C71.6237 13.7544 71.5248 13.2023 71.3269 12.9731C71.056 12.6606 70.655 12.5044 70.1237 12.5044H69.5769V12.1138H74.7487C75.5092 12.1138 76.1654 12.145 76.7175 12.2075C77.2696 12.2596 77.7227 12.3429 78.0769 12.4575C78.431 12.5721 78.7644 12.7336 79.0769 12.9419C79.3894 13.1398 79.6602 13.3846 79.8894 13.6763C80.129 13.9575 80.3165 14.2752 80.4519 14.6294C80.5873 14.9836 80.655 15.3638 80.655 15.77C80.655 16.6554 80.3737 17.4159 79.8112 18.0513C79.2487 18.6867 78.3685 19.1398 77.1706 19.4106L80.0925 23.4731C80.4362 23.9419 80.7383 24.3273 80.9987 24.6294C81.2696 24.9315 81.5352 25.1711 81.7956 25.3481C82.0665 25.5252 82.3477 25.6554 82.6394 25.7388C82.9415 25.8221 83.2956 25.8846 83.7019 25.9263V26.3169ZM73.6237 19.02C73.7592 19.02 73.8737 19.0252 73.9675 19.0356C74.0717 19.0356 74.155 19.0356 74.2175 19.0356C74.8946 19.0356 75.4883 18.9575 75.9987 18.8013C76.5092 18.645 76.9362 18.4263 77.28 18.145C77.6237 17.8638 77.879 17.5356 78.0456 17.1606C78.2227 16.7752 78.3112 16.3586 78.3112 15.9106C78.3112 15.4731 78.2383 15.0721 78.0925 14.7075C77.9467 14.3325 77.7383 14.0148 77.4675 13.7544C77.1967 13.4836 76.8737 13.2752 76.4987 13.1294C76.1237 12.9836 75.7123 12.9106 75.2644 12.9106C74.8373 12.9106 74.2904 12.9784 73.6237 13.1138V19.02ZM89.2944 12.895V18.5044H92.4037C92.8621 18.5044 93.2319 18.4627 93.5131 18.3794C93.7944 18.2961 94.0131 18.1711 94.1694 18.0044C94.336 17.8377 94.4506 17.6242 94.5131 17.3638C94.5756 17.1034 94.6173 16.7961 94.6381 16.4419H95.0287V21.3794H94.6381C94.586 20.9731 94.5235 20.6346 94.4506 20.3638C94.3881 20.0929 94.2787 19.8794 94.1225 19.7231C93.9767 19.5565 93.7683 19.4419 93.4975 19.3794C93.2267 19.3065 92.8621 19.27 92.4037 19.27H89.2944V23.9575C89.2944 24.3117 89.2996 24.5929 89.31 24.8013C89.3204 25.0096 89.3621 25.1711 89.435 25.2856C89.5079 25.3898 89.6225 25.4575 89.7787 25.4888C89.935 25.52 90.1642 25.5356 90.4662 25.5356H92.8725C93.2787 25.5356 93.6225 25.5252 93.9037 25.5044C94.185 25.4836 94.4246 25.4419 94.6225 25.3794C94.8308 25.3169 95.0131 25.2336 95.1694 25.1294C95.3256 25.0148 95.4923 24.8742 95.6694 24.7075C96.086 24.3013 96.5287 23.6502 96.9975 22.7544H97.4194L96.185 26.3169H85.2475V25.9263H85.7475C85.8829 25.9263 86.0235 25.9106 86.1694 25.8794C86.3152 25.8481 86.4506 25.8065 86.5756 25.7544C86.711 25.6919 86.8308 25.6138 86.935 25.52C87.0392 25.4263 87.1121 25.3169 87.1537 25.1919C87.2371 24.9627 87.2787 24.5044 87.2787 23.8169V14.5981C87.2787 13.6919 87.1902 13.1346 87.0131 12.9263C86.7631 12.645 86.3412 12.5044 85.7475 12.5044H85.2475V12.1138H96.185V15.2231H95.935C95.8308 14.7127 95.7162 14.3065 95.5912 14.0044C95.4767 13.6919 95.3204 13.4523 95.1225 13.2856C94.9246 13.119 94.6694 13.0148 94.3569 12.9731C94.0548 12.9211 93.6642 12.895 93.185 12.895H89.2944ZM109.012 11.8013V16.7075H108.621C108.444 15.3846 108.012 14.3742 107.324 13.6763C106.637 12.9784 105.762 12.6294 104.699 12.6294C104.335 12.6294 104.001 12.6919 103.699 12.8169C103.397 12.9419 103.132 13.1086 102.903 13.3169C102.673 13.5148 102.496 13.744 102.371 14.0044C102.246 14.2648 102.184 14.5356 102.184 14.8169C102.184 15.0773 102.236 15.3273 102.34 15.5669C102.444 15.7961 102.767 16.1606 103.309 16.6606C104.215 17.2336 105.022 17.7075 105.731 18.0825C106.397 18.4471 107.298 18.9992 108.434 19.7388C108.923 20.1138 109.298 20.5617 109.559 21.0825C109.819 21.5929 109.949 22.1294 109.949 22.6919C109.949 23.2231 109.84 23.7284 109.621 24.2075C109.403 24.6867 109.095 25.1086 108.699 25.4731C108.314 25.8273 107.845 26.1086 107.293 26.3169C106.741 26.5356 106.137 26.645 105.481 26.645C105.064 26.645 104.679 26.6138 104.324 26.5513C104.262 26.5409 104.095 26.494 103.824 26.4106C103.564 26.3377 103.283 26.2596 102.981 26.1763C102.679 26.0929 102.397 26.0148 102.137 25.9419C101.876 25.869 101.725 25.8325 101.684 25.8325C101.507 25.8325 101.366 25.8846 101.262 25.9888C101.168 26.0929 101.095 26.3117 101.043 26.645H100.653V21.77H101.043C101.231 22.77 101.475 23.5356 101.778 24.0669C101.923 24.3169 102.116 24.5513 102.356 24.77C102.606 24.9784 102.882 25.1659 103.184 25.3325C103.496 25.4888 103.83 25.6138 104.184 25.7075C104.538 25.7909 104.897 25.8325 105.262 25.8325C105.699 25.8325 106.09 25.77 106.434 25.645C106.788 25.52 107.085 25.3534 107.324 25.145C107.574 24.9263 107.762 24.6763 107.887 24.395C108.022 24.1138 108.09 23.8169 108.09 23.5044C108.09 23.1502 107.991 22.7961 107.793 22.4419C107.606 22.0877 107.283 21.7388 106.824 21.395C106.376 21.1242 105.845 20.8065 105.231 20.4419C104.054 19.7648 103.007 19.1138 102.09 18.4888C101.58 18.0825 101.189 17.6398 100.918 17.1606C100.658 16.6711 100.528 16.1294 100.528 15.5356C100.528 15.0356 100.632 14.5617 100.84 14.1138C101.048 13.6554 101.335 13.2544 101.699 12.9106C102.074 12.5669 102.517 12.2961 103.028 12.0981C103.538 11.9002 104.09 11.8013 104.684 11.8013C105.434 11.8013 106.231 11.9836 107.074 12.3481C107.272 12.4315 107.439 12.4992 107.574 12.5513C107.71 12.6034 107.819 12.6242 107.903 12.6138C108.09 12.6138 108.241 12.5617 108.356 12.4575C108.47 12.3534 108.559 12.1346 108.621 11.8013H109.012ZM119.011 25.9263V26.3169H112.932V25.9263H113.432C113.682 25.9263 113.901 25.9106 114.089 25.8794C114.287 25.8377 114.448 25.7492 114.573 25.6138C114.698 25.4679 114.792 25.2544 114.854 24.9731C114.927 24.6815 114.964 24.2909 114.964 23.8013V14.6294C114.964 14.3065 114.953 14.0409 114.932 13.8325C114.922 13.6138 114.896 13.4367 114.854 13.3013C114.823 13.1659 114.771 13.0617 114.698 12.9888C114.625 12.9054 114.526 12.8273 114.401 12.7544C114.089 12.5877 113.766 12.5044 113.432 12.5044H112.932V12.1138H119.011V12.5044H118.511C118.261 12.5044 118.037 12.5252 117.839 12.5669C117.651 12.6086 117.495 12.7023 117.37 12.8481C117.245 12.9836 117.146 13.1971 117.073 13.4888C117.011 13.77 116.979 14.1502 116.979 14.6294V23.8013C116.979 24.1346 116.985 24.4054 116.995 24.6138C117.005 24.8221 117.031 24.994 117.073 25.1294C117.115 25.2648 117.172 25.3742 117.245 25.4575C117.328 25.5304 117.432 25.6034 117.557 25.6763C117.849 25.8429 118.167 25.9263 118.511 25.9263H119.011ZM121.197 26.3169V25.9263H121.744C121.983 25.9263 122.197 25.9054 122.384 25.8638C122.572 25.8221 122.728 25.7284 122.853 25.5825C122.978 25.4367 123.072 25.2231 123.134 24.9419C123.207 24.6606 123.244 24.2804 123.244 23.8013V14.6294C123.244 13.7544 123.145 13.2023 122.947 12.9731C122.676 12.6606 122.275 12.5044 121.744 12.5044H121.197V12.1138H126.978C129.082 12.1138 130.697 12.3586 131.822 12.8481C132.936 13.3377 133.827 14.1398 134.494 15.2544C135.171 16.3898 135.509 17.6867 135.509 19.145C135.509 20.1971 135.338 21.1606 134.994 22.0356C134.66 22.9106 134.155 23.6659 133.478 24.3013C132.811 24.9367 131.983 25.4315 130.994 25.7856C130.004 26.1398 128.853 26.3169 127.541 26.3169H121.197ZM125.259 25.2856C126.124 25.4836 126.864 25.5825 127.478 25.5825C128.28 25.5825 129.025 25.4367 129.713 25.145C130.4 24.8429 130.994 24.4211 131.494 23.8794C132.004 23.3273 132.4 22.6606 132.681 21.8794C132.973 21.0981 133.119 20.2231 133.119 19.2544C133.119 18.2752 132.978 17.395 132.697 16.6138C132.416 15.8221 132.02 15.1554 131.509 14.6138C130.999 14.0617 130.395 13.6398 129.697 13.3481C128.999 13.0565 128.233 12.9106 127.4 12.9106C126.785 12.9106 126.072 13.0148 125.259 13.2231V25.2856ZM142.102 12.895V18.5044H145.211C145.67 18.5044 146.039 18.4627 146.321 18.3794C146.602 18.2961 146.821 18.1711 146.977 18.0044C147.144 17.8377 147.258 17.6242 147.321 17.3638C147.383 17.1034 147.425 16.7961 147.446 16.4419H147.836V21.3794H147.446C147.394 20.9731 147.331 20.6346 147.258 20.3638C147.196 20.0929 147.086 19.8794 146.93 19.7231C146.784 19.5565 146.576 19.4419 146.305 19.3794C146.034 19.3065 145.67 19.27 145.211 19.27H142.102V23.9575C142.102 24.3117 142.107 24.5929 142.118 24.8013C142.128 25.0096 142.17 25.1711 142.243 25.2856C142.315 25.3898 142.43 25.4575 142.586 25.4888C142.743 25.52 142.972 25.5356 143.274 25.5356H145.68C146.086 25.5356 146.43 25.5252 146.711 25.5044C146.993 25.4836 147.232 25.4419 147.43 25.3794C147.638 25.3169 147.821 25.2336 147.977 25.1294C148.133 25.0148 148.3 24.8742 148.477 24.7075C148.894 24.3013 149.336 23.6502 149.805 22.7544H150.227L148.993 26.3169H138.055V25.9263H138.555C138.69 25.9263 138.831 25.9106 138.977 25.8794C139.123 25.8481 139.258 25.8065 139.383 25.7544C139.519 25.6919 139.638 25.6138 139.743 25.52C139.847 25.4263 139.92 25.3169 139.961 25.1919C140.045 24.9627 140.086 24.5044 140.086 23.8169V14.5981C140.086 13.6919 139.998 13.1346 139.821 12.9263C139.571 12.645 139.149 12.5044 138.555 12.5044H138.055V12.1138H148.993V15.2231H148.743C148.638 14.7127 148.524 14.3065 148.399 14.0044C148.284 13.6919 148.128 13.4523 147.93 13.2856C147.732 13.119 147.477 13.0148 147.164 12.9731C146.862 12.9211 146.472 12.895 145.993 12.895H142.102ZM151.71 12.1138H155.554L164.241 22.77V14.5825C164.241 14.1034 164.205 13.7231 164.132 13.4419C164.069 13.1606 163.97 12.9523 163.835 12.8169C163.71 12.6815 163.554 12.5981 163.366 12.5669C163.179 12.5252 162.965 12.5044 162.726 12.5044H162.226V12.1138H167.179V12.5044H166.663C166.413 12.5044 166.194 12.5252 166.007 12.5669C165.819 12.6086 165.663 12.7023 165.538 12.8481C165.413 12.994 165.319 13.2023 165.257 13.4731C165.194 13.744 165.163 14.1138 165.163 14.5825V26.5513H164.788L155.429 15.1138V23.8638C155.429 24.3534 155.46 24.7388 155.522 25.02C155.595 25.2909 155.694 25.494 155.819 25.6294C155.944 25.7648 156.101 25.8481 156.288 25.8794C156.476 25.9106 156.689 25.9263 156.929 25.9263H157.429V26.3169H152.491V25.9263H152.991C153.241 25.9263 153.46 25.9054 153.647 25.8638C153.835 25.8221 153.991 25.7336 154.116 25.5981C154.252 25.4523 154.351 25.244 154.413 24.9731C154.476 24.7023 154.507 24.3325 154.507 23.8638V13.9888C154.299 13.7388 154.121 13.5409 153.976 13.395C153.84 13.2492 153.71 13.1294 153.585 13.0356C153.46 12.9419 153.325 12.8638 153.179 12.8013C153.033 12.7388 152.851 12.6711 152.632 12.5981C152.424 12.5356 152.116 12.5044 151.71 12.5044V12.1138ZM181.177 12.1138V15.4575H180.943C180.829 14.5617 180.563 13.9315 180.146 13.5669C179.74 13.1919 179.136 13.0044 178.334 13.0044H176.334V23.8638C176.334 24.3429 176.365 24.7231 176.427 25.0044C176.5 25.2752 176.599 25.4784 176.724 25.6138C176.849 25.7492 177.006 25.8377 177.193 25.8794C177.381 25.9106 177.599 25.9263 177.849 25.9263H178.334V26.3169H172.318V25.9263H172.818C173.068 25.9263 173.287 25.9054 173.474 25.8638C173.662 25.8221 173.818 25.7336 173.943 25.5981C174.068 25.4523 174.162 25.244 174.224 24.9731C174.297 24.7023 174.334 24.3325 174.334 23.8638V13.0044H172.631C172.204 13.0044 171.823 13.0409 171.49 13.1138C171.167 13.1763 170.886 13.3013 170.646 13.4888C170.407 13.6659 170.214 13.9159 170.068 14.2388C169.933 14.5513 169.849 14.9575 169.818 15.4575H169.427V12.1138H181.177Z" fill="#00093F"/>
<line x1="59" y1="35.75" x2="69" y2="35.75" stroke="#00093F" stroke-width="0.5"/>
<path d="M73 38.5762V33.4208H75.5672C75.9397 33.4208 76.2644 33.4805 76.5414 33.5998C76.8185 33.7191 77.0339 33.8802 77.1879 34.0831C77.3418 34.2836 77.4187 34.5056 77.4187 34.749C77.4187 35.0259 77.3233 35.2729 77.1325 35.4901C76.9416 35.7049 76.6861 35.8541 76.366 35.9376L76.3568 35.7622C76.7877 35.8577 77.1263 36.0247 77.3725 36.2634C77.6188 36.5021 77.7419 36.7909 77.7419 37.1298C77.7419 37.4281 77.6604 37.6859 77.4972 37.9031C77.3341 38.1179 77.1047 38.2838 76.8092 38.4007C76.5137 38.5177 76.1705 38.5762 75.7796 38.5762H73ZM73.6834 38.0714H75.6134C75.8843 38.0714 76.1274 38.0344 76.3429 37.9604C76.5584 37.884 76.7277 37.7766 76.8508 37.6382C76.977 37.4997 77.0401 37.3327 77.0401 37.137C77.0401 36.946 76.9832 36.7742 76.8693 36.6214C76.7554 36.4687 76.5999 36.3469 76.4029 36.2562C76.209 36.1632 75.9874 36.1166 75.738 36.1166H73.6834V38.0714ZM73.6834 35.619H75.5626C75.775 35.619 75.9689 35.582 76.1444 35.508C76.3198 35.4316 76.4583 35.3278 76.5599 35.1965C76.6646 35.0653 76.7169 34.9137 76.7169 34.7419C76.7169 34.4984 76.6076 34.3003 76.3891 34.1476C76.1736 33.9948 75.8981 33.9184 75.5626 33.9184H73.6834V35.619Z" fill="#00093F"/>
<path d="M83.1052 38.6836C82.5973 38.6836 82.1479 38.6024 81.7569 38.4401C81.3691 38.2778 81.0643 38.0487 80.8427 37.7527C80.6211 37.4568 80.5103 37.1107 80.5103 36.7145V33.4244L81.1936 33.4208V36.6465C81.1936 36.9138 81.2521 37.1453 81.3691 37.341C81.486 37.5343 81.6384 37.6943 81.8262 37.8208C82.017 37.9449 82.2248 38.0368 82.4495 38.0964C82.6742 38.1561 82.8928 38.1859 83.1052 38.1859C83.3206 38.1859 83.5407 38.1561 83.7654 38.0964C83.9901 38.0368 84.1964 37.9449 84.3842 37.8208C84.5719 37.6943 84.7243 37.5343 84.8413 37.341C84.9582 37.1453 85.0167 36.9138 85.0167 36.6465V33.4208H85.7001V36.7145C85.7001 37.1107 85.5893 37.4568 85.3676 37.7527C85.146 38.0463 84.8397 38.2754 84.4488 38.4401C84.0609 38.6024 83.6131 38.6836 83.1052 38.6836Z" fill="#00093F"/>
<path d="M90.8703 38.6836C90.4054 38.6836 89.9868 38.6239 89.6144 38.5046C89.245 38.3828 88.9387 38.211 88.6955 37.989C88.4554 37.7671 88.2984 37.5033 88.2246 37.1978L88.9172 37.1083C89.028 37.4425 89.2619 37.705 89.619 37.8959C89.976 38.0845 90.4024 38.1788 90.898 38.1788C91.2242 38.1788 91.5167 38.1394 91.7752 38.0606C92.0338 37.9795 92.237 37.8649 92.3847 37.7169C92.5325 37.569 92.6063 37.3935 92.6063 37.1907C92.6063 37.057 92.5756 36.9436 92.514 36.8505C92.4524 36.7551 92.3709 36.6763 92.2693 36.6143C92.1677 36.5522 92.0569 36.5009 91.9368 36.4603C91.8168 36.4173 91.6998 36.3827 91.5859 36.3565L89.9006 35.9663C89.6975 35.9209 89.5097 35.8636 89.3373 35.7944C89.1649 35.7228 89.0141 35.6381 88.8848 35.5402C88.7586 35.44 88.6601 35.323 88.5893 35.1894C88.5185 35.0557 88.4831 34.903 88.4831 34.7311C88.4831 34.4399 88.5816 34.1881 88.7786 33.9757C88.9756 33.7633 89.245 33.5998 89.5867 33.4852C89.9283 33.3707 90.3177 33.3146 90.7548 33.317C91.1981 33.317 91.5936 33.3778 91.9415 33.4996C92.2924 33.6213 92.5817 33.7955 92.8095 34.0223C93.0373 34.2466 93.1881 34.5127 93.262 34.8206L92.5509 34.9209C92.5048 34.6965 92.3986 34.502 92.2323 34.3373C92.0661 34.1726 91.8537 34.0461 91.5952 33.9578C91.3397 33.8671 91.058 33.8206 90.7502 33.8182C90.4516 33.8182 90.1854 33.8576 89.9514 33.9363C89.7206 34.0127 89.5374 34.1177 89.402 34.2514C89.2665 34.385 89.1988 34.5378 89.1988 34.7096C89.1988 34.8839 89.2604 35.0235 89.3835 35.1285C89.5097 35.2335 89.6636 35.3159 89.8452 35.3755C90.0299 35.4352 90.2084 35.4841 90.3808 35.5223L91.6829 35.8195C91.8183 35.8481 91.9769 35.8899 92.1585 35.9448C92.3432 35.9973 92.5217 36.0737 92.6941 36.1739C92.8695 36.2718 93.0142 36.4006 93.1281 36.5606C93.242 36.7205 93.2989 36.9233 93.2989 37.1692C93.2989 37.4078 93.2374 37.6215 93.1142 37.81C92.9942 37.9986 92.8234 38.1573 92.6017 38.2862C92.3832 38.4151 92.1262 38.5129 91.8306 38.5797C91.5382 38.649 91.2181 38.6836 90.8703 38.6836Z" fill="#00093F"/>
<path d="M96.1913 38.5762V33.4208H96.87V38.5762H96.1913Z" fill="#00093F"/>
<path d="M100.101 38.5762V33.4208H100.785L104.446 37.6453V33.4208H105.129V38.5762H104.446L100.785 34.348V38.5762H100.101Z" fill="#00093F"/>
<path d="M108.27 38.5762V33.4208H112.425V33.9256H108.949V35.7085H111.871V36.2133H108.949V38.0714H112.425V38.5762H108.27Z" fill="#00093F"/>
<path d="M117.448 38.6836C116.984 38.6836 116.565 38.6239 116.192 38.5046C115.823 38.3828 115.517 38.211 115.274 37.989C115.034 37.7671 114.877 37.5033 114.803 37.1978L115.495 37.1083C115.606 37.4425 115.84 37.705 116.197 37.8959C116.554 38.0845 116.98 38.1788 117.476 38.1788C117.802 38.1788 118.095 38.1394 118.353 38.0606C118.612 37.9795 118.815 37.8649 118.963 37.7169C119.111 37.569 119.184 37.3935 119.184 37.1907C119.184 37.057 119.154 36.9436 119.092 36.8505C119.031 36.7551 118.949 36.6763 118.847 36.6143C118.746 36.5522 118.635 36.5009 118.515 36.4603C118.395 36.4173 118.278 36.3827 118.164 36.3565L116.479 35.9663C116.276 35.9209 116.088 35.8636 115.915 35.7944C115.743 35.7228 115.592 35.6381 115.463 35.5402C115.337 35.44 115.238 35.323 115.167 35.1894C115.097 35.0557 115.061 34.903 115.061 34.7311C115.061 34.4399 115.16 34.1881 115.357 33.9757C115.554 33.7633 115.823 33.5998 116.165 33.4852C116.506 33.3707 116.896 33.3146 117.333 33.317C117.776 33.317 118.172 33.3778 118.52 33.4996C118.87 33.6213 119.16 33.7955 119.388 34.0223C119.615 34.2466 119.766 34.5127 119.84 34.8206L119.129 34.9209C119.083 34.6965 118.977 34.502 118.81 34.3373C118.644 34.1726 118.432 34.0461 118.173 33.9578C117.918 33.8671 117.636 33.8206 117.328 33.8182C117.03 33.8182 116.763 33.8576 116.53 33.9363C116.299 34.0127 116.116 34.1177 115.98 34.2514C115.845 34.385 115.777 34.5378 115.777 34.7096C115.777 34.8839 115.838 35.0235 115.962 35.1285C116.088 35.2335 116.242 35.3159 116.423 35.3755C116.608 35.4352 116.787 35.4841 116.959 35.5223L118.261 35.8195C118.396 35.8481 118.555 35.8899 118.737 35.9448C118.921 35.9973 119.1 36.0737 119.272 36.1739C119.448 36.2718 119.592 36.4006 119.706 36.5606C119.82 36.7205 119.877 36.9233 119.877 37.1692C119.877 37.4078 119.815 37.6215 119.692 37.81C119.572 37.9986 119.401 38.1573 119.18 38.2862C118.961 38.4151 118.704 38.5129 118.409 38.5797C118.116 38.649 117.796 38.6836 117.448 38.6836Z" fill="#00093F"/>
<path d="M125.121 38.6836C124.656 38.6836 124.238 38.6239 123.865 38.5046C123.496 38.3828 123.189 38.211 122.946 37.989C122.706 37.7671 122.549 37.5033 122.475 37.1978L123.168 37.1083C123.279 37.4425 123.513 37.705 123.87 37.8959C124.227 38.0845 124.653 38.1788 125.149 38.1788C125.475 38.1788 125.767 38.1394 126.026 38.0606C126.285 37.9795 126.488 37.8649 126.635 37.7169C126.783 37.569 126.857 37.3935 126.857 37.1907C126.857 37.057 126.826 36.9436 126.765 36.8505C126.703 36.7551 126.622 36.6763 126.52 36.6143C126.418 36.5522 126.308 36.5009 126.188 36.4603C126.068 36.4173 125.951 36.3827 125.837 36.3565L124.151 35.9663C123.948 35.9209 123.76 35.8636 123.588 35.7944C123.416 35.7228 123.265 35.6381 123.136 35.5402C123.009 35.44 122.911 35.323 122.84 35.1894C122.769 35.0557 122.734 34.903 122.734 34.7311C122.734 34.4399 122.832 34.1881 123.029 33.9757C123.226 33.7633 123.496 33.5998 123.837 33.4852C124.179 33.3707 124.568 33.3146 125.006 33.317C125.449 33.317 125.844 33.3778 126.192 33.4996C126.543 33.6213 126.832 33.7955 127.06 34.0223C127.288 34.2466 127.439 34.5127 127.513 34.8206L126.802 34.9209C126.755 34.6965 126.649 34.502 126.483 34.3373C126.317 34.1726 126.104 34.0461 125.846 33.9578C125.59 33.8671 125.309 33.8206 125.001 33.8182C124.702 33.8182 124.436 33.8576 124.202 33.9363C123.971 34.0127 123.788 34.1177 123.653 34.2514C123.517 34.385 123.45 34.5378 123.45 34.7096C123.45 34.8839 123.511 35.0235 123.634 35.1285C123.76 35.2335 123.914 35.3159 124.096 35.3755C124.281 35.4352 124.459 35.4841 124.632 35.5223L125.934 35.8195C126.069 35.8481 126.228 35.8899 126.409 35.9448C126.594 35.9973 126.772 36.0737 126.945 36.1739C127.12 36.2718 127.265 36.4006 127.379 36.5606C127.493 36.7205 127.55 36.9233 127.55 37.1692C127.55 37.4078 127.488 37.6215 127.365 37.81C127.245 37.9986 127.074 38.1573 126.852 38.2862C126.634 38.4151 126.377 38.5129 126.081 38.5797C125.789 38.649 125.469 38.6836 125.121 38.6836Z" fill="#00093F"/>
<path d="M136.709 38.6836C136.242 38.6836 135.82 38.6203 135.444 38.4938C135.069 38.3673 134.749 38.1871 134.484 37.9532C134.222 37.7193 134.022 37.4377 133.884 37.1083C133.745 36.7766 133.676 36.4066 133.676 35.9985C133.676 35.4591 133.796 34.9889 134.036 34.5879C134.279 34.1845 134.627 33.8719 135.08 33.6499C135.532 33.428 136.075 33.317 136.709 33.317C137.417 33.317 137.993 33.4459 138.436 33.7036C138.883 33.959 139.194 34.3027 139.369 34.7347L138.686 34.8636C138.541 34.5485 138.302 34.2967 137.97 34.1082C137.641 33.9196 137.23 33.8253 136.737 33.8253C136.217 33.823 135.784 33.9137 135.44 34.0974C135.095 34.2788 134.835 34.5342 134.659 34.8636C134.487 35.1906 134.399 35.5689 134.396 35.9985C134.393 36.4281 134.478 36.8064 134.65 37.1334C134.826 37.458 135.087 37.7133 135.435 37.8995C135.783 38.0833 136.217 38.1764 136.737 38.1788C137.214 38.1788 137.608 38.1072 137.919 37.964C138.23 37.8208 138.466 37.6155 138.626 37.3482C138.789 37.0809 138.881 36.7646 138.903 36.3994H137.37V35.9484H139.614C139.623 36.0032 139.628 36.0617 139.628 36.1238C139.631 36.1834 139.632 36.2264 139.632 36.2527C139.632 36.7181 139.524 37.1346 139.309 37.5021C139.093 37.8673 138.769 38.1561 138.335 38.3685C137.904 38.5785 137.362 38.6836 136.709 38.6836Z" fill="#00093F"/>
<path d="M142.496 38.5762V33.4208H143.174V38.5762H142.496Z" fill="#00093F"/>
<path d="M146.405 38.5762V33.4208H150.224V33.9471H147.084V35.7371H149.67V36.2598H147.084V38.5762H146.405Z" fill="#00093F"/>
<path d="M154.674 38.5762V33.9256H152.352V33.4208H157.675V33.9256H155.353V38.5762H154.674Z" fill="#00093F"/>
<path d="M162.571 38.6836C162.107 38.6836 161.688 38.6239 161.315 38.5046C160.946 38.3828 160.64 38.211 160.397 37.989C160.156 37.7671 159.999 37.5033 159.926 37.1978L160.618 37.1083C160.729 37.4425 160.963 37.705 161.32 37.8959C161.677 38.0845 162.103 38.1788 162.599 38.1788C162.925 38.1788 163.218 38.1394 163.476 38.0606C163.735 37.9795 163.938 37.8649 164.086 37.7169C164.234 37.569 164.307 37.3935 164.307 37.1907C164.307 37.057 164.277 36.9436 164.215 36.8505C164.153 36.7551 164.072 36.6763 163.97 36.6143C163.869 36.5522 163.758 36.5009 163.638 36.4603C163.518 36.4173 163.401 36.3827 163.287 36.3565L161.602 35.9663C161.399 35.9209 161.211 35.8636 161.038 35.7944C160.866 35.7228 160.715 35.6381 160.586 35.5402C160.46 35.44 160.361 35.323 160.29 35.1894C160.22 35.0557 160.184 34.903 160.184 34.7311C160.184 34.4399 160.283 34.1881 160.48 33.9757C160.677 33.7633 160.946 33.5998 161.288 33.4852C161.629 33.3707 162.019 33.3146 162.456 33.317C162.899 33.317 163.295 33.3778 163.643 33.4996C163.993 33.6213 164.283 33.7955 164.511 34.0223C164.738 34.2466 164.889 34.5127 164.963 34.8206L164.252 34.9209C164.206 34.6965 164.1 34.502 163.933 34.3373C163.767 34.1726 163.555 34.0461 163.296 33.9578C163.041 33.8671 162.759 33.8206 162.451 33.8182C162.153 33.8182 161.886 33.8576 161.652 33.9363C161.422 34.0127 161.238 34.1177 161.103 34.2514C160.968 34.385 160.9 34.5378 160.9 34.7096C160.9 34.8839 160.961 35.0235 161.085 35.1285C161.211 35.2335 161.365 35.3159 161.546 35.3755C161.731 35.4352 161.91 35.4841 162.082 35.5223L163.384 35.8195C163.519 35.8481 163.678 35.8899 163.86 35.9448C164.044 35.9973 164.223 36.0737 164.395 36.1739C164.571 36.2718 164.715 36.4006 164.829 36.5606C164.943 36.7205 165 36.9233 165 37.1692C165 37.4078 164.938 37.6215 164.815 37.81C164.695 37.9986 164.524 38.1573 164.303 38.2862C164.084 38.4151 163.827 38.5129 163.532 38.5797C163.239 38.649 162.919 38.6836 162.571 38.6836Z" fill="#00093F"/>
<line x1="169" y1="35.75" x2="179" y2="35.75" stroke="#00093F" stroke-width="0.5"/>
</svg>
