<svg width="186" height="46" viewBox="0 0 186 46" fill="none" xmlns="http://www.w3.org/2000/svg">
<path fill-rule="evenodd" clip-rule="evenodd" d="M24.0001 3L29.8689 8.83103L38.142 8.85802L38.1689 17.1312L44 23L38.1689 28.8688L38.142 37.142L29.8689 37.169L24.0001 43L18.1311 37.169L9.85804 37.142L9.83105 28.8688L4 23L9.83105 17.1312L9.85804 8.85802L18.1311 8.83103L24.0001 3Z" stroke="#AF955C" stroke-width="3.99988" stroke-miterlimit="22.9256"/>
<path fill-rule="evenodd" clip-rule="evenodd" d="M19.2444 11.5195L23.9996 13.4713L28.7548 11.5197L30.7373 16.2621L35.4797 18.2445L33.5281 22.9995L35.4796 27.7548L30.7372 29.7374L28.7548 34.4798L23.9997 32.5282L19.2444 34.4795L17.2619 29.7372L12.5195 27.7549L14.4712 22.9997L12.5197 18.2445L17.2621 16.2621L19.2444 11.5195Z" stroke="#AF955C" stroke-width="3.99988" stroke-miterlimit="22.9256"/>
<path d="M60.3906 19.6758V23.8008C60.3906 24.707 60.4896 25.2643 60.6875 25.4727C60.9583 25.7747 61.3594 25.9258 61.8906 25.9258H62.4375V26.3164H56.3594V25.9258H56.8906C57.4844 25.9258 57.9115 25.7331 58.1719 25.3477C58.3177 25.1185 58.3906 24.6029 58.3906 23.8008V14.6289C58.3906 13.7435 58.2969 13.1914 58.1094 12.9727C57.8281 12.6602 57.4219 12.5039 56.8906 12.5039H56.3594V12.1133H61.5625C62.8125 12.1133 63.8125 12.2487 64.5625 12.5195C64.9271 12.6445 65.2656 12.8216 65.5781 13.0508C65.901 13.2695 66.1771 13.5352 66.4062 13.8477C66.6458 14.1497 66.8333 14.4883 66.9688 14.8633C67.1042 15.2279 67.1719 15.6237 67.1719 16.0508C67.1719 16.6237 67.0729 17.1497 66.875 17.6289C66.6771 18.1081 66.3906 18.5195 66.0156 18.8633C65.6406 19.207 65.1823 19.4779 64.6406 19.6758C64.099 19.8633 63.4792 19.957 62.7812 19.957C62.1042 19.957 61.3073 19.8633 60.3906 19.6758ZM60.3906 19.0664C60.7656 19.1393 61.0938 19.1966 61.375 19.2383C61.6562 19.2695 61.901 19.2852 62.1094 19.2852C62.474 19.2852 62.8177 19.2122 63.1406 19.0664C63.4635 18.9102 63.7448 18.7018 63.9844 18.4414C64.2344 18.1706 64.4271 17.8477 64.5625 17.4727C64.7083 17.0977 64.7812 16.6914 64.7812 16.2539C64.7812 15.7331 64.7031 15.2695 64.5469 14.8633C64.3906 14.457 64.1771 14.1133 63.9062 13.832C63.6354 13.5508 63.3177 13.3372 62.9531 13.1914C62.5885 13.0456 62.1927 12.9727 61.7656 12.9727C61.4115 12.9727 60.9531 13.0352 60.3906 13.1602V19.0664ZM83.7019 26.3164H79.9206L75.1081 19.6758C74.931 19.6862 74.7696 19.6966 74.6237 19.707C74.4883 19.707 74.3633 19.707 74.2487 19.707C74.155 19.707 74.056 19.707 73.9519 19.707C73.8477 19.6966 73.7383 19.6862 73.6237 19.6758V23.8008C73.6237 24.3008 73.655 24.6966 73.7175 24.9883C73.7904 25.2695 73.8894 25.4831 74.0144 25.6289C74.1498 25.7643 74.306 25.8477 74.4831 25.8789C74.6706 25.9102 74.879 25.9258 75.1081 25.9258H75.6706V26.3164H69.5769V25.9258H70.1237C70.7071 25.9258 71.1342 25.7331 71.405 25.3477C71.5508 25.1185 71.6237 24.6029 71.6237 23.8008V14.6289C71.6237 13.7539 71.5248 13.2018 71.3269 12.9727C71.056 12.6602 70.655 12.5039 70.1237 12.5039H69.5769V12.1133H74.7487C75.5092 12.1133 76.1654 12.1445 76.7175 12.207C77.2696 12.2591 77.7227 12.3424 78.0769 12.457C78.431 12.5716 78.7644 12.7331 79.0769 12.9414C79.3894 13.1393 79.6602 13.3841 79.8894 13.6758C80.129 13.957 80.3165 14.2747 80.4519 14.6289C80.5873 14.9831 80.655 15.3633 80.655 15.7695C80.655 16.6549 80.3737 17.4154 79.8112 18.0508C79.2487 18.6862 78.3685 19.1393 77.1706 19.4102L80.0925 23.4727C80.4362 23.9414 80.7383 24.3268 80.9987 24.6289C81.2696 24.931 81.5352 25.1706 81.7956 25.3477C82.0665 25.5247 82.3477 25.6549 82.6394 25.7383C82.9415 25.8216 83.2956 25.8841 83.7019 25.9258V26.3164ZM73.6237 19.0195C73.7592 19.0195 73.8737 19.0247 73.9675 19.0352C74.0717 19.0352 74.155 19.0352 74.2175 19.0352C74.8946 19.0352 75.4883 18.957 75.9987 18.8008C76.5092 18.6445 76.9362 18.4258 77.28 18.1445C77.6237 17.8633 77.879 17.5352 78.0456 17.1602C78.2227 16.7747 78.3112 16.3581 78.3112 15.9102C78.3112 15.4727 78.2383 15.0716 78.0925 14.707C77.9467 14.332 77.7383 14.0143 77.4675 13.7539C77.1967 13.4831 76.8737 13.2747 76.4987 13.1289C76.1237 12.9831 75.7123 12.9102 75.2644 12.9102C74.8373 12.9102 74.2904 12.9779 73.6237 13.1133V19.0195ZM89.2944 12.8945V18.5039H92.4037C92.8621 18.5039 93.2319 18.4622 93.5131 18.3789C93.7944 18.2956 94.0131 18.1706 94.1694 18.0039C94.336 17.8372 94.4506 17.6237 94.5131 17.3633C94.5756 17.1029 94.6173 16.7956 94.6381 16.4414H95.0287V21.3789H94.6381C94.586 20.9727 94.5235 20.6341 94.4506 20.3633C94.3881 20.0924 94.2787 19.8789 94.1225 19.7227C93.9767 19.556 93.7683 19.4414 93.4975 19.3789C93.2267 19.306 92.8621 19.2695 92.4037 19.2695H89.2944V23.957C89.2944 24.3112 89.2996 24.5924 89.31 24.8008C89.3204 25.0091 89.3621 25.1706 89.435 25.2852C89.5079 25.3893 89.6225 25.457 89.7787 25.4883C89.935 25.5195 90.1642 25.5352 90.4662 25.5352H92.8725C93.2787 25.5352 93.6225 25.5247 93.9037 25.5039C94.185 25.4831 94.4246 25.4414 94.6225 25.3789C94.8308 25.3164 95.0131 25.2331 95.1694 25.1289C95.3256 25.0143 95.4923 24.8737 95.6694 24.707C96.086 24.3008 96.5287 23.6497 96.9975 22.7539H97.4194L96.185 26.3164H85.2475V25.9258H85.7475C85.8829 25.9258 86.0235 25.9102 86.1694 25.8789C86.3152 25.8477 86.4506 25.806 86.5756 25.7539C86.711 25.6914 86.8308 25.6133 86.935 25.5195C87.0392 25.4258 87.1121 25.3164 87.1537 25.1914C87.2371 24.9622 87.2787 24.5039 87.2787 23.8164V14.5977C87.2787 13.6914 87.1902 13.1341 87.0131 12.9258C86.7631 12.6445 86.3412 12.5039 85.7475 12.5039H85.2475V12.1133H96.185V15.2227H95.935C95.8308 14.7122 95.7162 14.306 95.5912 14.0039C95.4767 13.6914 95.3204 13.4518 95.1225 13.2852C94.9246 13.1185 94.6694 13.0143 94.3569 12.9727C94.0548 12.9206 93.6642 12.8945 93.185 12.8945H89.2944ZM109.012 11.8008V16.707H108.621C108.444 15.3841 108.012 14.3737 107.324 13.6758C106.637 12.9779 105.762 12.6289 104.699 12.6289C104.335 12.6289 104.001 12.6914 103.699 12.8164C103.397 12.9414 103.132 13.1081 102.903 13.3164C102.673 13.5143 102.496 13.7435 102.371 14.0039C102.246 14.2643 102.184 14.5352 102.184 14.8164C102.184 15.0768 102.236 15.3268 102.34 15.5664C102.444 15.7956 102.767 16.1602 103.309 16.6602C104.215 17.2331 105.022 17.707 105.731 18.082C106.397 18.4466 107.298 18.9987 108.434 19.7383C108.923 20.1133 109.298 20.5612 109.559 21.082C109.819 21.5924 109.949 22.1289 109.949 22.6914C109.949 23.2227 109.84 23.7279 109.621 24.207C109.403 24.6862 109.095 25.1081 108.699 25.4727C108.314 25.8268 107.845 26.1081 107.293 26.3164C106.741 26.5352 106.137 26.6445 105.481 26.6445C105.064 26.6445 104.679 26.6133 104.324 26.5508C104.262 26.5404 104.095 26.4935 103.824 26.4102C103.564 26.3372 103.283 26.2591 102.981 26.1758C102.679 26.0924 102.397 26.0143 102.137 25.9414C101.876 25.8685 101.725 25.832 101.684 25.832C101.507 25.832 101.366 25.8841 101.262 25.9883C101.168 26.0924 101.095 26.3112 101.043 26.6445H100.653V21.7695H101.043C101.231 22.7695 101.475 23.5352 101.778 24.0664C101.923 24.3164 102.116 24.5508 102.356 24.7695C102.606 24.9779 102.882 25.1654 103.184 25.332C103.496 25.4883 103.83 25.6133 104.184 25.707C104.538 25.7904 104.897 25.832 105.262 25.832C105.699 25.832 106.09 25.7695 106.434 25.6445C106.788 25.5195 107.085 25.3529 107.324 25.1445C107.574 24.9258 107.762 24.6758 107.887 24.3945C108.022 24.1133 108.09 23.8164 108.09 23.5039C108.09 23.1497 107.991 22.7956 107.793 22.4414C107.606 22.0872 107.283 21.7383 106.824 21.3945C106.376 21.1237 105.845 20.806 105.231 20.4414C104.054 19.7643 103.007 19.1133 102.09 18.4883C101.58 18.082 101.189 17.6393 100.918 17.1602C100.658 16.6706 100.528 16.1289 100.528 15.5352C100.528 15.0352 100.632 14.5612 100.84 14.1133C101.048 13.6549 101.335 13.2539 101.699 12.9102C102.074 12.5664 102.517 12.2956 103.028 12.0977C103.538 11.8997 104.09 11.8008 104.684 11.8008C105.434 11.8008 106.231 11.9831 107.074 12.3477C107.272 12.431 107.439 12.4987 107.574 12.5508C107.71 12.6029 107.819 12.6237 107.903 12.6133C108.09 12.6133 108.241 12.5612 108.356 12.457C108.47 12.3529 108.559 12.1341 108.621 11.8008H109.012ZM119.011 25.9258V26.3164H112.932V25.9258H113.432C113.682 25.9258 113.901 25.9102 114.089 25.8789C114.287 25.8372 114.448 25.7487 114.573 25.6133C114.698 25.4674 114.792 25.2539 114.854 24.9727C114.927 24.681 114.964 24.2904 114.964 23.8008V14.6289C114.964 14.306 114.953 14.0404 114.932 13.832C114.922 13.6133 114.896 13.4362 114.854 13.3008C114.823 13.1654 114.771 13.0612 114.698 12.9883C114.625 12.9049 114.526 12.8268 114.401 12.7539C114.089 12.5872 113.766 12.5039 113.432 12.5039H112.932V12.1133H119.011V12.5039H118.511C118.261 12.5039 118.037 12.5247 117.839 12.5664C117.651 12.6081 117.495 12.7018 117.37 12.8477C117.245 12.9831 117.146 13.1966 117.073 13.4883C117.011 13.7695 116.979 14.1497 116.979 14.6289V23.8008C116.979 24.1341 116.985 24.4049 116.995 24.6133C117.005 24.8216 117.031 24.9935 117.073 25.1289C117.115 25.2643 117.172 25.3737 117.245 25.457C117.328 25.5299 117.432 25.6029 117.557 25.6758C117.849 25.8424 118.167 25.9258 118.511 25.9258H119.011ZM121.197 26.3164V25.9258H121.744C121.983 25.9258 122.197 25.9049 122.384 25.8633C122.572 25.8216 122.728 25.7279 122.853 25.582C122.978 25.4362 123.072 25.2227 123.134 24.9414C123.207 24.6602 123.244 24.2799 123.244 23.8008V14.6289C123.244 13.7539 123.145 13.2018 122.947 12.9727C122.676 12.6602 122.275 12.5039 121.744 12.5039H121.197V12.1133H126.978C129.082 12.1133 130.697 12.3581 131.822 12.8477C132.936 13.3372 133.827 14.1393 134.494 15.2539C135.171 16.3893 135.509 17.6862 135.509 19.1445C135.509 20.1966 135.338 21.1602 134.994 22.0352C134.66 22.9102 134.155 23.6654 133.478 24.3008C132.811 24.9362 131.983 25.431 130.994 25.7852C130.004 26.1393 128.853 26.3164 127.541 26.3164H121.197ZM125.259 25.2852C126.124 25.4831 126.864 25.582 127.478 25.582C128.28 25.582 129.025 25.4362 129.713 25.1445C130.4 24.8424 130.994 24.4206 131.494 23.8789C132.004 23.3268 132.4 22.6602 132.681 21.8789C132.973 21.0977 133.119 20.2227 133.119 19.2539C133.119 18.2747 132.978 17.3945 132.697 16.6133C132.416 15.8216 132.02 15.1549 131.509 14.6133C130.999 14.0612 130.395 13.6393 129.697 13.3477C128.999 13.056 128.233 12.9102 127.4 12.9102C126.785 12.9102 126.072 13.0143 125.259 13.2227V25.2852ZM142.102 12.8945V18.5039H145.211C145.67 18.5039 146.039 18.4622 146.321 18.3789C146.602 18.2956 146.821 18.1706 146.977 18.0039C147.144 17.8372 147.258 17.6237 147.321 17.3633C147.383 17.1029 147.425 16.7956 147.446 16.4414H147.836V21.3789H147.446C147.394 20.9727 147.331 20.6341 147.258 20.3633C147.196 20.0924 147.086 19.8789 146.93 19.7227C146.784 19.556 146.576 19.4414 146.305 19.3789C146.034 19.306 145.67 19.2695 145.211 19.2695H142.102V23.957C142.102 24.3112 142.107 24.5924 142.118 24.8008C142.128 25.0091 142.17 25.1706 142.243 25.2852C142.315 25.3893 142.43 25.457 142.586 25.4883C142.743 25.5195 142.972 25.5352 143.274 25.5352H145.68C146.086 25.5352 146.43 25.5247 146.711 25.5039C146.993 25.4831 147.232 25.4414 147.43 25.3789C147.638 25.3164 147.821 25.2331 147.977 25.1289C148.133 25.0143 148.3 24.8737 148.477 24.707C148.894 24.3008 149.336 23.6497 149.805 22.7539H150.227L148.993 26.3164H138.055V25.9258H138.555C138.69 25.9258 138.831 25.9102 138.977 25.8789C139.123 25.8477 139.258 25.806 139.383 25.7539C139.519 25.6914 139.638 25.6133 139.743 25.5195C139.847 25.4258 139.92 25.3164 139.961 25.1914C140.045 24.9622 140.086 24.5039 140.086 23.8164V14.5977C140.086 13.6914 139.998 13.1341 139.821 12.9258C139.571 12.6445 139.149 12.5039 138.555 12.5039H138.055V12.1133H148.993V15.2227H148.743C148.638 14.7122 148.524 14.306 148.399 14.0039C148.284 13.6914 148.128 13.4518 147.93 13.2852C147.732 13.1185 147.477 13.0143 147.164 12.9727C146.862 12.9206 146.472 12.8945 145.993 12.8945H142.102ZM151.71 12.1133H155.554L164.241 22.7695V14.582C164.241 14.1029 164.205 13.7227 164.132 13.4414C164.069 13.1602 163.97 12.9518 163.835 12.8164C163.71 12.681 163.554 12.5977 163.366 12.5664C163.179 12.5247 162.965 12.5039 162.726 12.5039H162.226V12.1133H167.179V12.5039H166.663C166.413 12.5039 166.194 12.5247 166.007 12.5664C165.819 12.6081 165.663 12.7018 165.538 12.8477C165.413 12.9935 165.319 13.2018 165.257 13.4727C165.194 13.7435 165.163 14.1133 165.163 14.582V26.5508H164.788L155.429 15.1133V23.8633C155.429 24.3529 155.46 24.7383 155.522 25.0195C155.595 25.2904 155.694 25.4935 155.819 25.6289C155.944 25.7643 156.101 25.8477 156.288 25.8789C156.476 25.9102 156.689 25.9258 156.929 25.9258H157.429V26.3164H152.491V25.9258H152.991C153.241 25.9258 153.46 25.9049 153.647 25.8633C153.835 25.8216 153.991 25.7331 154.116 25.5977C154.252 25.4518 154.351 25.2435 154.413 24.9727C154.476 24.7018 154.507 24.332 154.507 23.8633V13.9883C154.299 13.7383 154.121 13.5404 153.976 13.3945C153.84 13.2487 153.71 13.1289 153.585 13.0352C153.46 12.9414 153.325 12.8633 153.179 12.8008C153.033 12.7383 152.851 12.6706 152.632 12.5977C152.424 12.5352 152.116 12.5039 151.71 12.5039V12.1133ZM181.177 12.1133V15.457H180.943C180.829 14.5612 180.563 13.931 180.146 13.5664C179.74 13.1914 179.136 13.0039 178.334 13.0039H176.334V23.8633C176.334 24.3424 176.365 24.7227 176.427 25.0039C176.5 25.2747 176.599 25.4779 176.724 25.6133C176.849 25.7487 177.006 25.8372 177.193 25.8789C177.381 25.9102 177.599 25.9258 177.849 25.9258H178.334V26.3164H172.318V25.9258H172.818C173.068 25.9258 173.287 25.9049 173.474 25.8633C173.662 25.8216 173.818 25.7331 173.943 25.5977C174.068 25.4518 174.162 25.2435 174.224 24.9727C174.297 24.7018 174.334 24.332 174.334 23.8633V13.0039H172.631C172.204 13.0039 171.823 13.0404 171.49 13.1133C171.167 13.1758 170.886 13.3008 170.646 13.4883C170.407 13.6654 170.214 13.9154 170.068 14.2383C169.933 14.5508 169.849 14.957 169.818 15.457H169.427V12.1133H181.177Z" fill="#00093F"/>
<line x1="59" y1="35.75" x2="69" y2="35.75" stroke="#00093F" stroke-width="0.5"/>
<path d="M73 38.5757V33.4203H75.5672C75.9397 33.4203 76.2644 33.48 76.5414 33.5993C76.8185 33.7186 77.0339 33.8798 77.1879 34.0826C77.3418 34.2831 77.4187 34.5051 77.4187 34.7485C77.4187 35.0254 77.3233 35.2724 77.1325 35.4896C76.9416 35.7044 76.6861 35.8536 76.366 35.9371L76.3568 35.7617C76.7877 35.8572 77.1263 36.0242 77.3725 36.2629C77.6188 36.5016 77.7419 36.7904 77.7419 37.1293C77.7419 37.4276 77.6604 37.6854 77.4972 37.9026C77.3341 38.1174 77.1047 38.2833 76.8092 38.4002C76.5137 38.5172 76.1705 38.5757 75.7796 38.5757H73ZM73.6834 38.0709H75.6134C75.8843 38.0709 76.1274 38.0339 76.3429 37.9599C76.5584 37.8835 76.7277 37.7761 76.8508 37.6377C76.977 37.4992 77.0401 37.3322 77.0401 37.1365C77.0401 36.9455 76.9832 36.7737 76.8693 36.6209C76.7554 36.4682 76.5999 36.3465 76.4029 36.2558C76.209 36.1627 75.9874 36.1161 75.738 36.1161H73.6834V38.0709ZM73.6834 35.6185H75.5626C75.775 35.6185 75.9689 35.5815 76.1444 35.5075C76.3198 35.4311 76.4583 35.3273 76.5599 35.196C76.6646 35.0648 76.7169 34.9132 76.7169 34.7414C76.7169 34.4979 76.6076 34.2998 76.3891 34.1471C76.1736 33.9943 75.8981 33.9179 75.5626 33.9179H73.6834V35.6185Z" fill="#00093F"/>
<path d="M83.1052 38.6831C82.5973 38.6831 82.1479 38.6019 81.7569 38.4396C81.3691 38.2773 81.0643 38.0482 80.8427 37.7522C80.6211 37.4563 80.5103 37.1102 80.5103 36.714V33.4239L81.1936 33.4203V36.646C81.1936 36.9133 81.2521 37.1448 81.3691 37.3405C81.486 37.5339 81.6384 37.6938 81.8262 37.8203C82.017 37.9444 82.2248 38.0363 82.4495 38.0959C82.6742 38.1556 82.8928 38.1854 83.1052 38.1854C83.3206 38.1854 83.5407 38.1556 83.7654 38.0959C83.9901 38.0363 84.1964 37.9444 84.3842 37.8203C84.5719 37.6938 84.7243 37.5339 84.8413 37.3405C84.9582 37.1448 85.0167 36.9133 85.0167 36.646V33.4203H85.7001V36.714C85.7001 37.1102 85.5893 37.4563 85.3676 37.7522C85.146 38.0458 84.8397 38.2749 84.4488 38.4396C84.0609 38.6019 83.6131 38.6831 83.1052 38.6831Z" fill="#00093F"/>
<path d="M90.8703 38.6831C90.4054 38.6831 89.9868 38.6234 89.6144 38.5041C89.245 38.3823 88.9387 38.2105 88.6955 37.9885C88.4554 37.7666 88.2984 37.5028 88.2246 37.1973L88.9172 37.1078C89.028 37.442 89.2619 37.7045 89.619 37.8954C89.976 38.084 90.4024 38.1783 90.898 38.1783C91.2242 38.1783 91.5167 38.1389 91.7752 38.0601C92.0338 37.979 92.237 37.8644 92.3847 37.7164C92.5325 37.5685 92.6063 37.393 92.6063 37.1902C92.6063 37.0565 92.5756 36.9431 92.514 36.8501C92.4524 36.7546 92.3709 36.6758 92.2693 36.6138C92.1677 36.5517 92.0569 36.5004 91.9368 36.4598C91.8168 36.4169 91.6998 36.3823 91.5859 36.356L89.9006 35.9658C89.6975 35.9204 89.5097 35.8631 89.3373 35.7939C89.1649 35.7223 89.0141 35.6376 88.8848 35.5397C88.7586 35.4395 88.6601 35.3225 88.5893 35.1889C88.5185 35.0552 88.4831 34.9025 88.4831 34.7306C88.4831 34.4394 88.5816 34.1876 88.7786 33.9752C88.9756 33.7628 89.245 33.5993 89.5867 33.4847C89.9283 33.3702 90.3177 33.3141 90.7548 33.3165C91.1981 33.3165 91.5936 33.3773 91.9415 33.4991C92.2924 33.6208 92.5817 33.795 92.8095 34.0218C93.0373 34.2461 93.1881 34.5122 93.262 34.8201L92.5509 34.9204C92.5048 34.696 92.3986 34.5015 92.2323 34.3368C92.0661 34.1721 91.8537 34.0456 91.5952 33.9573C91.3397 33.8666 91.058 33.8201 90.7502 33.8177C90.4516 33.8177 90.1854 33.8571 89.9514 33.9358C89.7206 34.0122 89.5374 34.1172 89.402 34.2509C89.2665 34.3845 89.1988 34.5373 89.1988 34.7091C89.1988 34.8834 89.2604 35.023 89.3835 35.128C89.5097 35.233 89.6636 35.3154 89.8452 35.375C90.0299 35.4347 90.2084 35.4836 90.3808 35.5218L91.6829 35.819C91.8183 35.8476 91.9769 35.8894 92.1585 35.9443C92.3432 35.9968 92.5217 36.0732 92.6941 36.1734C92.8695 36.2713 93.0142 36.4002 93.1281 36.5601C93.242 36.72 93.2989 36.9228 93.2989 37.1687C93.2989 37.4074 93.2374 37.621 93.1142 37.8095C92.9942 37.9981 92.8234 38.1568 92.6017 38.2857C92.3832 38.4146 92.1262 38.5124 91.8306 38.5792C91.5382 38.6485 91.2181 38.6831 90.8703 38.6831Z" fill="#00093F"/>
<path d="M96.1913 38.5757V33.4203H96.87V38.5757H96.1913Z" fill="#00093F"/>
<path d="M100.101 38.5757V33.4203H100.785L104.446 37.6448V33.4203H105.129V38.5757H104.446L100.785 34.3476V38.5757H100.101Z" fill="#00093F"/>
<path d="M108.27 38.5757V33.4203H112.425V33.9251H108.949V35.708H111.871V36.2128H108.949V38.0709H112.425V38.5757H108.27Z" fill="#00093F"/>
<path d="M117.448 38.6831C116.984 38.6831 116.565 38.6234 116.192 38.5041C115.823 38.3823 115.517 38.2105 115.274 37.9885C115.034 37.7666 114.877 37.5028 114.803 37.1973L115.495 37.1078C115.606 37.442 115.84 37.7045 116.197 37.8954C116.554 38.084 116.98 38.1783 117.476 38.1783C117.802 38.1783 118.095 38.1389 118.353 38.0601C118.612 37.979 118.815 37.8644 118.963 37.7164C119.111 37.5685 119.184 37.393 119.184 37.1902C119.184 37.0565 119.154 36.9431 119.092 36.8501C119.031 36.7546 118.949 36.6758 118.847 36.6138C118.746 36.5517 118.635 36.5004 118.515 36.4598C118.395 36.4169 118.278 36.3823 118.164 36.356L116.479 35.9658C116.276 35.9204 116.088 35.8631 115.915 35.7939C115.743 35.7223 115.592 35.6376 115.463 35.5397C115.337 35.4395 115.238 35.3225 115.167 35.1889C115.097 35.0552 115.061 34.9025 115.061 34.7306C115.061 34.4394 115.16 34.1876 115.357 33.9752C115.554 33.7628 115.823 33.5993 116.165 33.4847C116.506 33.3702 116.896 33.3141 117.333 33.3165C117.776 33.3165 118.172 33.3773 118.52 33.4991C118.87 33.6208 119.16 33.795 119.388 34.0218C119.615 34.2461 119.766 34.5122 119.84 34.8201L119.129 34.9204C119.083 34.696 118.977 34.5015 118.81 34.3368C118.644 34.1721 118.432 34.0456 118.173 33.9573C117.918 33.8666 117.636 33.8201 117.328 33.8177C117.03 33.8177 116.763 33.8571 116.53 33.9358C116.299 34.0122 116.116 34.1172 115.98 34.2509C115.845 34.3845 115.777 34.5373 115.777 34.7091C115.777 34.8834 115.838 35.023 115.962 35.128C116.088 35.233 116.242 35.3154 116.423 35.375C116.608 35.4347 116.787 35.4836 116.959 35.5218L118.261 35.819C118.396 35.8476 118.555 35.8894 118.737 35.9443C118.921 35.9968 119.1 36.0732 119.272 36.1734C119.448 36.2713 119.592 36.4002 119.706 36.5601C119.82 36.72 119.877 36.9228 119.877 37.1687C119.877 37.4074 119.815 37.621 119.692 37.8095C119.572 37.9981 119.401 38.1568 119.18 38.2857C118.961 38.4146 118.704 38.5124 118.409 38.5792C118.116 38.6485 117.796 38.6831 117.448 38.6831Z" fill="#00093F"/>
<path d="M125.121 38.6831C124.656 38.6831 124.238 38.6234 123.865 38.5041C123.496 38.3823 123.189 38.2105 122.946 37.9885C122.706 37.7666 122.549 37.5028 122.475 37.1973L123.168 37.1078C123.279 37.442 123.513 37.7045 123.87 37.8954C124.227 38.084 124.653 38.1783 125.149 38.1783C125.475 38.1783 125.767 38.1389 126.026 38.0601C126.285 37.979 126.488 37.8644 126.635 37.7164C126.783 37.5685 126.857 37.393 126.857 37.1902C126.857 37.0565 126.826 36.9431 126.765 36.8501C126.703 36.7546 126.622 36.6758 126.52 36.6138C126.418 36.5517 126.308 36.5004 126.188 36.4598C126.068 36.4169 125.951 36.3823 125.837 36.356L124.151 35.9658C123.948 35.9204 123.76 35.8631 123.588 35.7939C123.416 35.7223 123.265 35.6376 123.136 35.5397C123.009 35.4395 122.911 35.3225 122.84 35.1889C122.769 35.0552 122.734 34.9025 122.734 34.7306C122.734 34.4394 122.832 34.1876 123.029 33.9752C123.226 33.7628 123.496 33.5993 123.837 33.4847C124.179 33.3702 124.568 33.3141 125.006 33.3165C125.449 33.3165 125.844 33.3773 126.192 33.4991C126.543 33.6208 126.832 33.795 127.06 34.0218C127.288 34.2461 127.439 34.5122 127.513 34.8201L126.802 34.9204C126.755 34.696 126.649 34.5015 126.483 34.3368C126.317 34.1721 126.104 34.0456 125.846 33.9573C125.59 33.8666 125.309 33.8201 125.001 33.8177C124.702 33.8177 124.436 33.8571 124.202 33.9358C123.971 34.0122 123.788 34.1172 123.653 34.2509C123.517 34.3845 123.45 34.5373 123.45 34.7091C123.45 34.8834 123.511 35.023 123.634 35.128C123.76 35.233 123.914 35.3154 124.096 35.375C124.281 35.4347 124.459 35.4836 124.632 35.5218L125.934 35.819C126.069 35.8476 126.228 35.8894 126.409 35.9443C126.594 35.9968 126.772 36.0732 126.945 36.1734C127.12 36.2713 127.265 36.4002 127.379 36.5601C127.493 36.72 127.55 36.9228 127.55 37.1687C127.55 37.4074 127.488 37.621 127.365 37.8095C127.245 37.9981 127.074 38.1568 126.852 38.2857C126.634 38.4146 126.377 38.5124 126.081 38.5792C125.789 38.6485 125.469 38.6831 125.121 38.6831Z" fill="#00093F"/>
<path d="M136.709 38.6831C136.242 38.6831 135.82 38.6198 135.444 38.4933C135.069 38.3668 134.749 38.1866 134.484 37.9527C134.222 37.7188 134.022 37.4372 133.884 37.1078C133.745 36.7761 133.676 36.4061 133.676 35.998C133.676 35.4586 133.796 34.9884 134.036 34.5874C134.279 34.1841 134.627 33.8714 135.08 33.6494C135.532 33.4275 136.075 33.3165 136.709 33.3165C137.417 33.3165 137.993 33.4454 138.436 33.7031C138.883 33.9585 139.194 34.3022 139.369 34.7342L138.686 34.8631C138.541 34.548 138.302 34.2962 137.97 34.1077C137.641 33.9191 137.23 33.8249 136.737 33.8249C136.217 33.8225 135.784 33.9132 135.44 34.0969C135.095 34.2783 134.835 34.5337 134.659 34.8631C134.487 35.1901 134.399 35.5684 134.396 35.998C134.393 36.4276 134.478 36.8059 134.65 37.1329C134.826 37.4575 135.087 37.7129 135.435 37.899C135.783 38.0828 136.217 38.1759 136.737 38.1783C137.214 38.1783 137.608 38.1067 137.919 37.9635C138.23 37.8203 138.466 37.615 138.626 37.3477C138.789 37.0804 138.881 36.7641 138.903 36.399H137.37V35.9479H139.614C139.623 36.0028 139.628 36.0612 139.628 36.1233C139.631 36.183 139.632 36.2259 139.632 36.2522C139.632 36.7176 139.524 37.1341 139.309 37.5016C139.093 37.8668 138.769 38.1556 138.335 38.368C137.904 38.5781 137.362 38.6831 136.709 38.6831Z" fill="#00093F"/>
<path d="M142.496 38.5757V33.4203H143.174V38.5757H142.496Z" fill="#00093F"/>
<path d="M146.405 38.5757V33.4203H150.224V33.9466H147.084V35.7366H149.67V36.2593H147.084V38.5757H146.405Z" fill="#00093F"/>
<path d="M154.674 38.5757V33.9251H152.352V33.4203H157.675V33.9251H155.353V38.5757H154.674Z" fill="#00093F"/>
<path d="M162.571 38.6831C162.107 38.6831 161.688 38.6234 161.315 38.5041C160.946 38.3823 160.64 38.2105 160.397 37.9885C160.156 37.7666 159.999 37.5028 159.926 37.1973L160.618 37.1078C160.729 37.442 160.963 37.7045 161.32 37.8954C161.677 38.084 162.103 38.1783 162.599 38.1783C162.925 38.1783 163.218 38.1389 163.476 38.0601C163.735 37.979 163.938 37.8644 164.086 37.7164C164.234 37.5685 164.307 37.393 164.307 37.1902C164.307 37.0565 164.277 36.9431 164.215 36.8501C164.153 36.7546 164.072 36.6758 163.97 36.6138C163.869 36.5517 163.758 36.5004 163.638 36.4598C163.518 36.4169 163.401 36.3823 163.287 36.356L161.602 35.9658C161.399 35.9204 161.211 35.8631 161.038 35.7939C160.866 35.7223 160.715 35.6376 160.586 35.5397C160.46 35.4395 160.361 35.3225 160.29 35.1889C160.22 35.0552 160.184 34.9025 160.184 34.7306C160.184 34.4394 160.283 34.1876 160.48 33.9752C160.677 33.7628 160.946 33.5993 161.288 33.4847C161.629 33.3702 162.019 33.3141 162.456 33.3165C162.899 33.3165 163.295 33.3773 163.643 33.4991C163.993 33.6208 164.283 33.795 164.511 34.0218C164.738 34.2461 164.889 34.5122 164.963 34.8201L164.252 34.9204C164.206 34.696 164.1 34.5015 163.933 34.3368C163.767 34.1721 163.555 34.0456 163.296 33.9573C163.041 33.8666 162.759 33.8201 162.451 33.8177C162.153 33.8177 161.886 33.8571 161.652 33.9358C161.422 34.0122 161.238 34.1172 161.103 34.2509C160.968 34.3845 160.9 34.5373 160.9 34.7091C160.9 34.8834 160.961 35.023 161.085 35.128C161.211 35.233 161.365 35.3154 161.546 35.375C161.731 35.4347 161.91 35.4836 162.082 35.5218L163.384 35.819C163.519 35.8476 163.678 35.8894 163.86 35.9443C164.044 35.9968 164.223 36.0732 164.395 36.1734C164.571 36.2713 164.715 36.4002 164.829 36.5601C164.943 36.72 165 36.9228 165 37.1687C165 37.4074 164.938 37.621 164.815 37.8095C164.695 37.9981 164.524 38.1568 164.303 38.2857C164.084 38.4146 163.827 38.5124 163.532 38.5792C163.239 38.6485 162.919 38.6831 162.571 38.6831Z" fill="#00093F"/>
<line x1="169" y1="35.75" x2="179" y2="35.75" stroke="#00093F" stroke-width="0.5"/>
</svg>
