<svg width="187" height="46" viewBox="0 0 187 46" fill="none" xmlns="http://www.w3.org/2000/svg">
<path fill-rule="evenodd" clip-rule="evenodd" d="M24.5001 3L30.3689 8.83103L38.642 8.85802L38.6689 17.1312L44.5 23L38.6689 28.8688L38.642 37.142L30.3689 37.169L24.5001 43L18.6311 37.169L10.358 37.142L10.3311 28.8688L4.5 23L10.3311 17.1312L10.358 8.85802L18.6311 8.83103L24.5001 3Z" stroke="#AF955C" stroke-width="3.99988" stroke-miterlimit="22.9256"/>
<path fill-rule="evenodd" clip-rule="evenodd" d="M19.7444 11.5198L24.4996 13.4716L29.2548 11.52L31.2373 16.2624L35.9797 18.2448L34.0281 22.9998L35.9796 27.7551L31.2372 29.7377L29.2548 34.4801L24.4997 32.5285L19.7444 34.4798L17.7619 29.7375L13.0195 27.7552L14.9712 23L13.0197 18.2448L17.7621 16.2624L19.7444 11.5198Z" stroke="#AF955C" stroke-width="3.99988" stroke-miterlimit="22.9256"/>
<path d="M60.8906 19.676V23.801C60.8906 24.7073 60.9896 25.2646 61.1875 25.4729C61.4583 25.775 61.8594 25.926 62.3906 25.926H62.9375V26.3167H56.8594V25.926H57.3906C57.9844 25.926 58.4115 25.7333 58.6719 25.3479C58.8177 25.1187 58.8906 24.6031 58.8906 23.801V14.6292C58.8906 13.7437 58.7969 13.1917 58.6094 12.9729C58.3281 12.6604 57.9219 12.5042 57.3906 12.5042H56.8594V12.1135H62.0625C63.3125 12.1135 64.3125 12.249 65.0625 12.5198C65.4271 12.6448 65.7656 12.8219 66.0781 13.051C66.401 13.2698 66.6771 13.5354 66.9062 13.8479C67.1458 14.15 67.3333 14.4885 67.4688 14.8635C67.6042 15.2281 67.6719 15.624 67.6719 16.051C67.6719 16.624 67.5729 17.15 67.375 17.6292C67.1771 18.1083 66.8906 18.5198 66.5156 18.8635C66.1406 19.2073 65.6823 19.4781 65.1406 19.676C64.599 19.8635 63.9792 19.9573 63.2812 19.9573C62.6042 19.9573 61.8073 19.8635 60.8906 19.676ZM60.8906 19.0667C61.2656 19.1396 61.5938 19.1969 61.875 19.2385C62.1562 19.2698 62.401 19.2854 62.6094 19.2854C62.974 19.2854 63.3177 19.2125 63.6406 19.0667C63.9635 18.9104 64.2448 18.7021 64.4844 18.4417C64.7344 18.1708 64.9271 17.8479 65.0625 17.4729C65.2083 17.0979 65.2812 16.6917 65.2812 16.2542C65.2812 15.7333 65.2031 15.2698 65.0469 14.8635C64.8906 14.4573 64.6771 14.1135 64.4062 13.8323C64.1354 13.551 63.8177 13.3375 63.4531 13.1917C63.0885 13.0458 62.6927 12.9729 62.2656 12.9729C61.9115 12.9729 61.4531 13.0354 60.8906 13.1604V19.0667ZM84.2019 26.3167H80.4206L75.6081 19.676C75.431 19.6865 75.2696 19.6969 75.1237 19.7073C74.9883 19.7073 74.8633 19.7073 74.7487 19.7073C74.655 19.7073 74.556 19.7073 74.4519 19.7073C74.3477 19.6969 74.2383 19.6865 74.1237 19.676V23.801C74.1237 24.301 74.155 24.6969 74.2175 24.9885C74.2904 25.2698 74.3894 25.4833 74.5144 25.6292C74.6498 25.7646 74.806 25.8479 74.9831 25.8792C75.1706 25.9104 75.379 25.926 75.6081 25.926H76.1706V26.3167H70.0769V25.926H70.6237C71.2071 25.926 71.6342 25.7333 71.905 25.3479C72.0508 25.1187 72.1237 24.6031 72.1237 23.801V14.6292C72.1237 13.7542 72.0248 13.2021 71.8269 12.9729C71.556 12.6604 71.155 12.5042 70.6237 12.5042H70.0769V12.1135H75.2487C76.0092 12.1135 76.6654 12.1448 77.2175 12.2073C77.7696 12.2594 78.2227 12.3427 78.5769 12.4573C78.931 12.5719 79.2644 12.7333 79.5769 12.9417C79.8894 13.1396 80.1602 13.3844 80.3894 13.676C80.629 13.9573 80.8165 14.275 80.9519 14.6292C81.0873 14.9833 81.155 15.3635 81.155 15.7698C81.155 16.6552 80.8737 17.4156 80.3112 18.051C79.7487 18.6865 78.8685 19.1396 77.6706 19.4104L80.5925 23.4729C80.9362 23.9417 81.2383 24.3271 81.4987 24.6292C81.7696 24.9312 82.0352 25.1708 82.2956 25.3479C82.5665 25.525 82.8477 25.6552 83.1394 25.7385C83.4415 25.8219 83.7956 25.8844 84.2019 25.926V26.3167ZM74.1237 19.0198C74.2592 19.0198 74.3737 19.025 74.4675 19.0354C74.5717 19.0354 74.655 19.0354 74.7175 19.0354C75.3946 19.0354 75.9883 18.9573 76.4987 18.801C77.0092 18.6448 77.4362 18.426 77.78 18.1448C78.1237 17.8635 78.379 17.5354 78.5456 17.1604C78.7227 16.775 78.8112 16.3583 78.8112 15.9104C78.8112 15.4729 78.7383 15.0719 78.5925 14.7073C78.4467 14.3323 78.2383 14.0146 77.9675 13.7542C77.6967 13.4833 77.3737 13.275 76.9987 13.1292C76.6237 12.9833 76.2123 12.9104 75.7644 12.9104C75.3373 12.9104 74.7904 12.9781 74.1237 13.1135V19.0198ZM89.7944 12.8948V18.5042H92.9037C93.3621 18.5042 93.7319 18.4625 94.0131 18.3792C94.2944 18.2958 94.5131 18.1708 94.6694 18.0042C94.836 17.8375 94.9506 17.624 95.0131 17.3635C95.0756 17.1031 95.1173 16.7958 95.1381 16.4417H95.5287V21.3792H95.1381C95.086 20.9729 95.0235 20.6344 94.9506 20.3635C94.8881 20.0927 94.7787 19.8792 94.6225 19.7229C94.4767 19.5562 94.2683 19.4417 93.9975 19.3792C93.7267 19.3062 93.3621 19.2698 92.9037 19.2698H89.7944V23.9573C89.7944 24.3115 89.7996 24.5927 89.81 24.801C89.8204 25.0094 89.8621 25.1708 89.935 25.2854C90.0079 25.3896 90.1225 25.4573 90.2787 25.4885C90.435 25.5198 90.6642 25.5354 90.9662 25.5354H93.3725C93.7787 25.5354 94.1225 25.525 94.4037 25.5042C94.685 25.4833 94.9246 25.4417 95.1225 25.3792C95.3308 25.3167 95.5131 25.2333 95.6694 25.1292C95.8256 25.0146 95.9923 24.874 96.1694 24.7073C96.586 24.301 97.0287 23.65 97.4975 22.7542H97.9194L96.685 26.3167H85.7475V25.926H86.2475C86.3829 25.926 86.5235 25.9104 86.6694 25.8792C86.8152 25.8479 86.9506 25.8062 87.0756 25.7542C87.211 25.6917 87.3308 25.6135 87.435 25.5198C87.5392 25.426 87.6121 25.3167 87.6537 25.1917C87.7371 24.9625 87.7787 24.5042 87.7787 23.8167V14.5979C87.7787 13.6917 87.6902 13.1344 87.5131 12.926C87.2631 12.6448 86.8412 12.5042 86.2475 12.5042H85.7475V12.1135H96.685V15.2229H96.435C96.3308 14.7125 96.2162 14.3062 96.0912 14.0042C95.9767 13.6917 95.8204 13.4521 95.6225 13.2854C95.4246 13.1187 95.1694 13.0146 94.8569 12.9729C94.5548 12.9208 94.1642 12.8948 93.685 12.8948H89.7944ZM109.512 11.801V16.7073H109.121C108.944 15.3844 108.512 14.374 107.824 13.676C107.137 12.9781 106.262 12.6292 105.199 12.6292C104.835 12.6292 104.501 12.6917 104.199 12.8167C103.897 12.9417 103.632 13.1083 103.403 13.3167C103.173 13.5146 102.996 13.7437 102.871 14.0042C102.746 14.2646 102.684 14.5354 102.684 14.8167C102.684 15.0771 102.736 15.3271 102.84 15.5667C102.944 15.7958 103.267 16.1604 103.809 16.6604C104.715 17.2333 105.522 17.7073 106.231 18.0823C106.897 18.4469 107.798 18.999 108.934 19.7385C109.423 20.1135 109.798 20.5615 110.059 21.0823C110.319 21.5927 110.449 22.1292 110.449 22.6917C110.449 23.2229 110.34 23.7281 110.121 24.2073C109.903 24.6865 109.595 25.1083 109.199 25.4729C108.814 25.8271 108.345 26.1083 107.793 26.3167C107.241 26.5354 106.637 26.6448 105.981 26.6448C105.564 26.6448 105.179 26.6135 104.824 26.551C104.762 26.5406 104.595 26.4937 104.324 26.4104C104.064 26.3375 103.783 26.2594 103.481 26.176C103.179 26.0927 102.897 26.0146 102.637 25.9417C102.376 25.8687 102.225 25.8323 102.184 25.8323C102.007 25.8323 101.866 25.8844 101.762 25.9885C101.668 26.0927 101.595 26.3115 101.543 26.6448H101.153V21.7698H101.543C101.731 22.7698 101.975 23.5354 102.278 24.0667C102.423 24.3167 102.616 24.551 102.856 24.7698C103.106 24.9781 103.382 25.1656 103.684 25.3323C103.996 25.4885 104.33 25.6135 104.684 25.7073C105.038 25.7906 105.397 25.8323 105.762 25.8323C106.199 25.8323 106.59 25.7698 106.934 25.6448C107.288 25.5198 107.585 25.3531 107.824 25.1448C108.074 24.926 108.262 24.676 108.387 24.3948C108.522 24.1135 108.59 23.8167 108.59 23.5042C108.59 23.15 108.491 22.7958 108.293 22.4417C108.106 22.0875 107.783 21.7385 107.324 21.3948C106.876 21.124 106.345 20.8062 105.731 20.4417C104.554 19.7646 103.507 19.1135 102.59 18.4885C102.08 18.0823 101.689 17.6396 101.418 17.1604C101.158 16.6708 101.028 16.1292 101.028 15.5354C101.028 15.0354 101.132 14.5615 101.34 14.1135C101.548 13.6552 101.835 13.2542 102.199 12.9104C102.574 12.5667 103.017 12.2958 103.528 12.0979C104.038 11.9 104.59 11.801 105.184 11.801C105.934 11.801 106.731 11.9833 107.574 12.3479C107.772 12.4312 107.939 12.499 108.074 12.551C108.21 12.6031 108.319 12.624 108.403 12.6135C108.59 12.6135 108.741 12.5615 108.856 12.4573C108.97 12.3531 109.059 12.1344 109.121 11.801H109.512ZM119.511 25.926V26.3167H113.432V25.926H113.932C114.182 25.926 114.401 25.9104 114.589 25.8792C114.787 25.8375 114.948 25.749 115.073 25.6135C115.198 25.4677 115.292 25.2542 115.354 24.9729C115.427 24.6812 115.464 24.2906 115.464 23.801V14.6292C115.464 14.3062 115.453 14.0406 115.432 13.8323C115.422 13.6135 115.396 13.4365 115.354 13.301C115.323 13.1656 115.271 13.0615 115.198 12.9885C115.125 12.9052 115.026 12.8271 114.901 12.7542C114.589 12.5875 114.266 12.5042 113.932 12.5042H113.432V12.1135H119.511V12.5042H119.011C118.761 12.5042 118.537 12.525 118.339 12.5667C118.151 12.6083 117.995 12.7021 117.87 12.8479C117.745 12.9833 117.646 13.1969 117.573 13.4885C117.511 13.7698 117.479 14.15 117.479 14.6292V23.801C117.479 24.1344 117.485 24.4052 117.495 24.6135C117.505 24.8219 117.531 24.9937 117.573 25.1292C117.615 25.2646 117.672 25.374 117.745 25.4573C117.828 25.5302 117.932 25.6031 118.057 25.676C118.349 25.8427 118.667 25.926 119.011 25.926H119.511ZM121.697 26.3167V25.926H122.244C122.483 25.926 122.697 25.9052 122.884 25.8635C123.072 25.8219 123.228 25.7281 123.353 25.5823C123.478 25.4365 123.572 25.2229 123.634 24.9417C123.707 24.6604 123.744 24.2802 123.744 23.801V14.6292C123.744 13.7542 123.645 13.2021 123.447 12.9729C123.176 12.6604 122.775 12.5042 122.244 12.5042H121.697V12.1135H127.478C129.582 12.1135 131.197 12.3583 132.322 12.8479C133.436 13.3375 134.327 14.1396 134.994 15.2542C135.671 16.3896 136.009 17.6865 136.009 19.1448C136.009 20.1969 135.838 21.1604 135.494 22.0354C135.16 22.9104 134.655 23.6656 133.978 24.301C133.311 24.9365 132.483 25.4312 131.494 25.7854C130.504 26.1396 129.353 26.3167 128.041 26.3167H121.697ZM125.759 25.2854C126.624 25.4833 127.364 25.5823 127.978 25.5823C128.78 25.5823 129.525 25.4365 130.213 25.1448C130.9 24.8427 131.494 24.4208 131.994 23.8792C132.504 23.3271 132.9 22.6604 133.181 21.8792C133.473 21.0979 133.619 20.2229 133.619 19.2542C133.619 18.275 133.478 17.3948 133.197 16.6135C132.916 15.8219 132.52 15.1552 132.009 14.6135C131.499 14.0615 130.895 13.6396 130.197 13.3479C129.499 13.0562 128.733 12.9104 127.9 12.9104C127.285 12.9104 126.572 13.0146 125.759 13.2229V25.2854ZM142.602 12.8948V18.5042H145.711C146.17 18.5042 146.539 18.4625 146.821 18.3792C147.102 18.2958 147.321 18.1708 147.477 18.0042C147.644 17.8375 147.758 17.624 147.821 17.3635C147.883 17.1031 147.925 16.7958 147.946 16.4417H148.336V21.3792H147.946C147.894 20.9729 147.831 20.6344 147.758 20.3635C147.696 20.0927 147.586 19.8792 147.43 19.7229C147.284 19.5562 147.076 19.4417 146.805 19.3792C146.534 19.3062 146.17 19.2698 145.711 19.2698H142.602V23.9573C142.602 24.3115 142.607 24.5927 142.618 24.801C142.628 25.0094 142.67 25.1708 142.743 25.2854C142.815 25.3896 142.93 25.4573 143.086 25.4885C143.243 25.5198 143.472 25.5354 143.774 25.5354H146.18C146.586 25.5354 146.93 25.525 147.211 25.5042C147.493 25.4833 147.732 25.4417 147.93 25.3792C148.138 25.3167 148.321 25.2333 148.477 25.1292C148.633 25.0146 148.8 24.874 148.977 24.7073C149.394 24.301 149.836 23.65 150.305 22.7542H150.727L149.493 26.3167H138.555V25.926H139.055C139.19 25.926 139.331 25.9104 139.477 25.8792C139.623 25.8479 139.758 25.8062 139.883 25.7542C140.019 25.6917 140.138 25.6135 140.243 25.5198C140.347 25.426 140.42 25.3167 140.461 25.1917C140.545 24.9625 140.586 24.5042 140.586 23.8167V14.5979C140.586 13.6917 140.498 13.1344 140.321 12.926C140.071 12.6448 139.649 12.5042 139.055 12.5042H138.555V12.1135H149.493V15.2229H149.243C149.138 14.7125 149.024 14.3062 148.899 14.0042C148.784 13.6917 148.628 13.4521 148.43 13.2854C148.232 13.1187 147.977 13.0146 147.664 12.9729C147.362 12.9208 146.972 12.8948 146.493 12.8948H142.602ZM152.21 12.1135H156.054L164.741 22.7698V14.5823C164.741 14.1031 164.705 13.7229 164.632 13.4417C164.569 13.1604 164.47 12.9521 164.335 12.8167C164.21 12.6812 164.054 12.5979 163.866 12.5667C163.679 12.525 163.465 12.5042 163.226 12.5042H162.726V12.1135H167.679V12.5042H167.163C166.913 12.5042 166.694 12.525 166.507 12.5667C166.319 12.6083 166.163 12.7021 166.038 12.8479C165.913 12.9937 165.819 13.2021 165.757 13.4729C165.694 13.7437 165.663 14.1135 165.663 14.5823V26.551H165.288L155.929 15.1135V23.8635C155.929 24.3531 155.96 24.7385 156.022 25.0198C156.095 25.2906 156.194 25.4937 156.319 25.6292C156.444 25.7646 156.601 25.8479 156.788 25.8792C156.976 25.9104 157.189 25.926 157.429 25.926H157.929V26.3167H152.991V25.926H153.491C153.741 25.926 153.96 25.9052 154.147 25.8635C154.335 25.8219 154.491 25.7333 154.616 25.5979C154.752 25.4521 154.851 25.2437 154.913 24.9729C154.976 24.7021 155.007 24.3323 155.007 23.8635V13.9885C154.799 13.7385 154.621 13.5406 154.476 13.3948C154.34 13.249 154.21 13.1292 154.085 13.0354C153.96 12.9417 153.825 12.8635 153.679 12.801C153.533 12.7385 153.351 12.6708 153.132 12.5979C152.924 12.5354 152.616 12.5042 152.21 12.5042V12.1135ZM181.677 12.1135V15.4573H181.443C181.329 14.5615 181.063 13.9312 180.646 13.5667C180.24 13.1917 179.636 13.0042 178.834 13.0042H176.834V23.8635C176.834 24.3427 176.865 24.7229 176.927 25.0042C177 25.275 177.099 25.4781 177.224 25.6135C177.349 25.749 177.506 25.8375 177.693 25.8792C177.881 25.9104 178.099 25.926 178.349 25.926H178.834V26.3167H172.818V25.926H173.318C173.568 25.926 173.787 25.9052 173.974 25.8635C174.162 25.8219 174.318 25.7333 174.443 25.5979C174.568 25.4521 174.662 25.2437 174.724 24.9729C174.797 24.7021 174.834 24.3323 174.834 23.8635V13.0042H173.131C172.704 13.0042 172.323 13.0406 171.99 13.1135C171.667 13.176 171.386 13.301 171.146 13.4885C170.907 13.6656 170.714 13.9156 170.568 14.2385C170.433 14.551 170.349 14.9573 170.318 15.4573H169.927V12.1135H181.677Z" fill="white"/>
<line x1="59.5" y1="35.75" x2="69.5" y2="35.75" stroke="white" stroke-width="0.5"/>
<path d="M73.5 38.5759V33.4206H76.0672C76.4397 33.4206 76.7644 33.4802 77.0414 33.5996C77.3185 33.7189 77.5339 33.88 77.6879 34.0829C77.8418 34.2834 77.9187 34.5053 77.9187 34.7488C77.9187 35.0256 77.8233 35.2727 77.6325 35.4899C77.4416 35.7047 77.1861 35.8538 76.866 35.9374L76.8568 35.762C77.2877 35.8574 77.6263 36.0245 77.8725 36.2632C78.1188 36.5018 78.2419 36.7906 78.2419 37.1296C78.2419 37.4279 78.1604 37.6857 77.9972 37.9029C77.8341 38.1177 77.6047 38.2836 77.3092 38.4005C77.0137 38.5175 76.6705 38.5759 76.2796 38.5759H73.5ZM74.1834 38.0711H76.1134C76.3843 38.0711 76.6274 38.0341 76.8429 37.9601C77.0584 37.8838 77.2277 37.7764 77.3508 37.6379C77.477 37.4995 77.5401 37.3324 77.5401 37.1367C77.5401 36.9458 77.4832 36.7739 77.3693 36.6212C77.2554 36.4684 77.0999 36.3467 76.9029 36.256C76.709 36.1629 76.4874 36.1164 76.238 36.1164H74.1834V38.0711ZM74.1834 35.6188H76.0626C76.275 35.6188 76.4689 35.5818 76.6444 35.5078C76.8198 35.4314 76.9583 35.3276 77.0599 35.1963C77.1646 35.065 77.2169 34.9135 77.2169 34.7416C77.2169 34.4982 77.1076 34.3001 76.8891 34.1473C76.6736 33.9946 76.3981 33.9182 76.0626 33.9182H74.1834V35.6188Z" fill="white"/>
<path d="M83.6052 38.6833C83.0973 38.6833 82.6479 38.6022 82.2569 38.4399C81.8691 38.2776 81.5643 38.0485 81.3427 37.7525C81.1211 37.4565 81.0103 37.1105 81.0103 36.7143V33.4241L81.6936 33.4206V36.6462C81.6936 36.9136 81.7521 37.1451 81.8691 37.3408C81.986 37.5341 82.1384 37.694 82.3262 37.8205C82.517 37.9446 82.7248 38.0365 82.9495 38.0962C83.1742 38.1559 83.3928 38.1857 83.6052 38.1857C83.8206 38.1857 84.0407 38.1559 84.2654 38.0962C84.4901 38.0365 84.6964 37.9446 84.8842 37.8205C85.0719 37.694 85.2243 37.5341 85.3413 37.3408C85.4582 37.1451 85.5167 36.9136 85.5167 36.6462V33.4206H86.2001V36.7143C86.2001 37.1105 86.0893 37.4565 85.8676 37.7525C85.646 38.0461 85.3397 38.2752 84.9488 38.4399C84.5609 38.6022 84.1131 38.6833 83.6052 38.6833Z" fill="white"/>
<path d="M91.3703 38.6833C90.9054 38.6833 90.4868 38.6237 90.1144 38.5043C89.745 38.3826 89.4387 38.2108 89.1955 37.9888C88.9554 37.7668 88.7984 37.5031 88.7246 37.1976L89.4172 37.1081C89.528 37.4422 89.7619 37.7048 90.119 37.8957C90.476 38.0843 90.9024 38.1785 91.398 38.1785C91.7242 38.1785 92.0167 38.1392 92.2752 38.0604C92.5338 37.9792 92.737 37.8647 92.8847 37.7167C93.0325 37.5687 93.1063 37.3933 93.1063 37.1904C93.1063 37.0568 93.0756 36.9434 93.014 36.8503C92.9524 36.7548 92.8709 36.6761 92.7693 36.614C92.6677 36.552 92.5569 36.5007 92.4368 36.4601C92.3168 36.4171 92.1998 36.3825 92.0859 36.3563L90.4006 35.966C90.1975 35.9207 90.0097 35.8634 89.8373 35.7942C89.6649 35.7226 89.5141 35.6378 89.3848 35.54C89.2586 35.4397 89.1601 35.3228 89.0893 35.1891C89.0185 35.0555 88.9831 34.9027 88.9831 34.7309C88.9831 34.4397 89.0816 34.1879 89.2786 33.9755C89.4756 33.7631 89.745 33.5996 90.0867 33.485C90.4283 33.3704 90.8177 33.3144 91.2548 33.3167C91.6981 33.3167 92.0936 33.3776 92.4415 33.4993C92.7924 33.621 93.0817 33.7953 93.3095 34.022C93.5373 34.2464 93.6881 34.5125 93.762 34.8204L93.0509 34.9206C93.0048 34.6963 92.8986 34.5018 92.7323 34.3371C92.5661 34.1724 92.3537 34.0459 92.0952 33.9576C91.8397 33.8669 91.558 33.8203 91.2502 33.818C90.9516 33.818 90.6854 33.8573 90.4514 33.9361C90.2206 34.0125 90.0374 34.1175 89.902 34.2511C89.7665 34.3848 89.6988 34.5376 89.6988 34.7094C89.6988 34.8836 89.7604 35.0233 89.8835 35.1283C90.0097 35.2333 90.1636 35.3156 90.3452 35.3753C90.5299 35.435 90.7084 35.4839 90.8808 35.5221L92.1829 35.8192C92.3183 35.8479 92.4769 35.8896 92.6585 35.9445C92.8432 35.9971 93.0217 36.0734 93.1941 36.1737C93.3695 36.2715 93.5142 36.4004 93.6281 36.5603C93.742 36.7202 93.7989 36.9231 93.7989 37.1689C93.7989 37.4076 93.7374 37.6212 93.6142 37.8098C93.4942 37.9983 93.3234 38.1571 93.1017 38.2859C92.8832 38.4148 92.6262 38.5127 92.3306 38.5795C92.0382 38.6487 91.7181 38.6833 91.3703 38.6833Z" fill="white"/>
<path d="M96.6913 38.5759V33.4206H97.37V38.5759H96.6913Z" fill="white"/>
<path d="M100.601 38.5759V33.4206H101.285L104.946 37.6451V33.4206H105.629V38.5759H104.946L101.285 34.3478V38.5759H100.601Z" fill="white"/>
<path d="M108.77 38.5759V33.4206H112.925V33.9254H109.449V35.7083H112.371V36.2131H109.449V38.0711H112.925V38.5759H108.77Z" fill="white"/>
<path d="M117.948 38.6833C117.484 38.6833 117.065 38.6237 116.692 38.5043C116.323 38.3826 116.017 38.2108 115.774 37.9888C115.534 37.7668 115.377 37.5031 115.303 37.1976L115.995 37.1081C116.106 37.4422 116.34 37.7048 116.697 37.8957C117.054 38.0843 117.48 38.1785 117.976 38.1785C118.302 38.1785 118.595 38.1392 118.853 38.0604C119.112 37.9792 119.315 37.8647 119.463 37.7167C119.611 37.5687 119.684 37.3933 119.684 37.1904C119.684 37.0568 119.654 36.9434 119.592 36.8503C119.531 36.7548 119.449 36.6761 119.347 36.614C119.246 36.552 119.135 36.5007 119.015 36.4601C118.895 36.4171 118.778 36.3825 118.664 36.3563L116.979 35.966C116.776 35.9207 116.588 35.8634 116.415 35.7942C116.243 35.7226 116.092 35.6378 115.963 35.54C115.837 35.4397 115.738 35.3228 115.667 35.1891C115.597 35.0555 115.561 34.9027 115.561 34.7309C115.561 34.4397 115.66 34.1879 115.857 33.9755C116.054 33.7631 116.323 33.5996 116.665 33.485C117.006 33.3704 117.396 33.3144 117.833 33.3167C118.276 33.3167 118.672 33.3776 119.02 33.4993C119.37 33.621 119.66 33.7953 119.888 34.022C120.115 34.2464 120.266 34.5125 120.34 34.8204L119.629 34.9206C119.583 34.6963 119.477 34.5018 119.31 34.3371C119.144 34.1724 118.932 34.0459 118.673 33.9576C118.418 33.8669 118.136 33.8203 117.828 33.818C117.53 33.818 117.263 33.8573 117.03 33.9361C116.799 34.0125 116.616 34.1175 116.48 34.2511C116.345 34.3848 116.277 34.5376 116.277 34.7094C116.277 34.8836 116.338 35.0233 116.462 35.1283C116.588 35.2333 116.742 35.3156 116.923 35.3753C117.108 35.435 117.287 35.4839 117.459 35.5221L118.761 35.8192C118.896 35.8479 119.055 35.8896 119.237 35.9445C119.421 35.9971 119.6 36.0734 119.772 36.1737C119.948 36.2715 120.092 36.4004 120.206 36.5603C120.32 36.7202 120.377 36.9231 120.377 37.1689C120.377 37.4076 120.315 37.6212 120.192 37.8098C120.072 37.9983 119.901 38.1571 119.68 38.2859C119.461 38.4148 119.204 38.5127 118.909 38.5795C118.616 38.6487 118.296 38.6833 117.948 38.6833Z" fill="white"/>
<path d="M125.621 38.6833C125.156 38.6833 124.738 38.6237 124.365 38.5043C123.996 38.3826 123.689 38.2108 123.446 37.9888C123.206 37.7668 123.049 37.5031 122.975 37.1976L123.668 37.1081C123.779 37.4422 124.013 37.7048 124.37 37.8957C124.727 38.0843 125.153 38.1785 125.649 38.1785C125.975 38.1785 126.267 38.1392 126.526 38.0604C126.785 37.9792 126.988 37.8647 127.135 37.7167C127.283 37.5687 127.357 37.3933 127.357 37.1904C127.357 37.0568 127.326 36.9434 127.265 36.8503C127.203 36.7548 127.122 36.6761 127.02 36.614C126.918 36.552 126.808 36.5007 126.688 36.4601C126.568 36.4171 126.451 36.3825 126.337 36.3563L124.651 35.966C124.448 35.9207 124.26 35.8634 124.088 35.7942C123.916 35.7226 123.765 35.6378 123.636 35.54C123.509 35.4397 123.411 35.3228 123.34 35.1891C123.269 35.0555 123.234 34.9027 123.234 34.7309C123.234 34.4397 123.332 34.1879 123.529 33.9755C123.726 33.7631 123.996 33.5996 124.337 33.485C124.679 33.3704 125.068 33.3144 125.506 33.3167C125.949 33.3167 126.344 33.3776 126.692 33.4993C127.043 33.621 127.332 33.7953 127.56 34.022C127.788 34.2464 127.939 34.5125 128.013 34.8204L127.302 34.9206C127.255 34.6963 127.149 34.5018 126.983 34.3371C126.817 34.1724 126.604 34.0459 126.346 33.9576C126.09 33.8669 125.809 33.8203 125.501 33.818C125.202 33.818 124.936 33.8573 124.702 33.9361C124.471 34.0125 124.288 34.1175 124.153 34.2511C124.017 34.3848 123.95 34.5376 123.95 34.7094C123.95 34.8836 124.011 35.0233 124.134 35.1283C124.26 35.2333 124.414 35.3156 124.596 35.3753C124.781 35.435 124.959 35.4839 125.132 35.5221L126.434 35.8192C126.569 35.8479 126.728 35.8896 126.909 35.9445C127.094 35.9971 127.272 36.0734 127.445 36.1737C127.62 36.2715 127.765 36.4004 127.879 36.5603C127.993 36.7202 128.05 36.9231 128.05 37.1689C128.05 37.4076 127.988 37.6212 127.865 37.8098C127.745 37.9983 127.574 38.1571 127.352 38.2859C127.134 38.4148 126.877 38.5127 126.581 38.5795C126.289 38.6487 125.969 38.6833 125.621 38.6833Z" fill="white"/>
<path d="M137.209 38.6833C136.742 38.6833 136.32 38.6201 135.944 38.4936C135.569 38.3671 135.249 38.1869 134.984 37.953C134.722 37.7191 134.522 37.4375 134.384 37.1081C134.245 36.7763 134.176 36.4064 134.176 35.9982C134.176 35.4588 134.296 34.9887 134.536 34.5877C134.779 34.1843 135.127 33.8717 135.58 33.6497C136.032 33.4277 136.575 33.3167 137.209 33.3167C137.917 33.3167 138.493 33.4456 138.936 33.7034C139.383 33.9588 139.694 34.3025 139.869 34.7345L139.186 34.8633C139.041 34.5483 138.802 34.2965 138.47 34.1079C138.141 33.9194 137.73 33.8251 137.237 33.8251C136.717 33.8227 136.284 33.9134 135.94 34.0972C135.595 34.2786 135.335 34.534 135.159 34.8633C134.987 35.1903 134.899 35.5686 134.896 35.9982C134.893 36.4279 134.978 36.8062 135.15 37.1331C135.326 37.4577 135.587 37.7131 135.935 37.8993C136.283 38.0831 136.717 38.1761 137.237 38.1785C137.714 38.1785 138.108 38.1069 138.419 37.9637C138.73 37.8205 138.966 37.6153 139.126 37.3479C139.289 37.0806 139.381 36.7644 139.403 36.3992H137.87V35.9481H140.114C140.123 36.003 140.128 36.0615 140.128 36.1235C140.131 36.1832 140.132 36.2262 140.132 36.2524C140.132 36.7178 140.024 37.1343 139.809 37.5019C139.593 37.8671 139.269 38.1559 138.835 38.3683C138.404 38.5783 137.862 38.6833 137.209 38.6833Z" fill="white"/>
<path d="M142.996 38.5759V33.4206H143.674V38.5759H142.996Z" fill="white"/>
<path d="M146.905 38.5759V33.4206H150.724V33.9468H147.584V35.7369H150.17V36.2596H147.584V38.5759H146.905Z" fill="white"/>
<path d="M155.174 38.5759V33.9254H152.852V33.4206H158.175V33.9254H155.853V38.5759H155.174Z" fill="white"/>
<path d="M163.071 38.6833C162.607 38.6833 162.188 38.6237 161.815 38.5043C161.446 38.3826 161.14 38.2108 160.897 37.9888C160.656 37.7668 160.499 37.5031 160.426 37.1976L161.118 37.1081C161.229 37.4422 161.463 37.7048 161.82 37.8957C162.177 38.0843 162.603 38.1785 163.099 38.1785C163.425 38.1785 163.718 38.1392 163.976 38.0604C164.235 37.9792 164.438 37.8647 164.586 37.7167C164.734 37.5687 164.807 37.3933 164.807 37.1904C164.807 37.0568 164.777 36.9434 164.715 36.8503C164.653 36.7548 164.572 36.6761 164.47 36.614C164.369 36.552 164.258 36.5007 164.138 36.4601C164.018 36.4171 163.901 36.3825 163.787 36.3563L162.102 35.966C161.899 35.9207 161.711 35.8634 161.538 35.7942C161.366 35.7226 161.215 35.6378 161.086 35.54C160.96 35.4397 160.861 35.3228 160.79 35.1891C160.72 35.0555 160.684 34.9027 160.684 34.7309C160.684 34.4397 160.783 34.1879 160.98 33.9755C161.177 33.7631 161.446 33.5996 161.788 33.485C162.129 33.3704 162.519 33.3144 162.956 33.3167C163.399 33.3167 163.795 33.3776 164.143 33.4993C164.493 33.621 164.783 33.7953 165.011 34.022C165.238 34.2464 165.389 34.5125 165.463 34.8204L164.752 34.9206C164.706 34.6963 164.6 34.5018 164.433 34.3371C164.267 34.1724 164.055 34.0459 163.796 33.9576C163.541 33.8669 163.259 33.8203 162.951 33.818C162.653 33.818 162.386 33.8573 162.152 33.9361C161.922 34.0125 161.738 34.1175 161.603 34.2511C161.468 34.3848 161.4 34.5376 161.4 34.7094C161.4 34.8836 161.461 35.0233 161.585 35.1283C161.711 35.2333 161.865 35.3156 162.046 35.3753C162.231 35.435 162.41 35.4839 162.582 35.5221L163.884 35.8192C164.019 35.8479 164.178 35.8896 164.36 35.9445C164.544 35.9971 164.723 36.0734 164.895 36.1737C165.071 36.2715 165.215 36.4004 165.329 36.5603C165.443 36.7202 165.5 36.9231 165.5 37.1689C165.5 37.4076 165.438 37.6212 165.315 37.8098C165.195 37.9983 165.024 38.1571 164.803 38.2859C164.584 38.4148 164.327 38.5127 164.032 38.5795C163.739 38.6487 163.419 38.6833 163.071 38.6833Z" fill="white"/>
<line x1="169.5" y1="35.75" x2="179.5" y2="35.75" stroke="white" stroke-width="0.5"/>
</svg>
